<svg id="Layer_1" data-name="Layer 1" xmlns="http://www.w3.org/2000/svg" xmlns:xlink="http://www.w3.org/1999/xlink" viewBox="0 0 185.83 107.36"><defs><style>.cls-1,.cls-12,.cls-17,.cls-5,.cls-9{fill:none;}.cls-2{fill:#b1e3fa;}.cls-3{clip-path:url(#clip-path);}.cls-4{clip-path:url(#clip-path-2);}.cls-17,.cls-5{stroke:#fff;}.cls-12,.cls-17,.cls-5,.cls-9{stroke-miterlimit:10;}.cls-5{stroke-width:0.26px;}.cls-6{clip-path:url(#clip-path-3);}.cls-7{fill:#f89824;}.cls-8{opacity:0.38;}.cls-9{stroke:#00aeef;stroke-width:0.27px;}.cls-10{fill:#2cc2ee;}.cls-11{fill:#fff;}.cls-12{stroke:#231f20;stroke-width:0.75px;}.cls-13{fill:#1c75bc;}.cls-14{clip-path:url(#clip-path-4);}.cls-15{fill:#433013;}.cls-16{clip-path:url(#clip-path-5);}.cls-17{stroke-width:0.25px;}.cls-18{fill:#005774;}</style><clipPath id="clip-path"><rect class="cls-1" x="19.14" y="133.12" width="147.55" height="95.5"/></clipPath><clipPath id="clip-path-2"><path class="cls-2" d="M37.67,176.85H52S53.41,205,76.6,205H96.9s25.74-3.27,25.74-27.05H138.1s.23,41.81-37.6,41.81l2.11,16.41h-33l2.81-16.41S38,219,37.67,176.85Z"/></clipPath><clipPath id="clip-path-3"><rect class="cls-1" x="0.1" y="-0.31" width="184.95" height="107.01"/></clipPath><clipPath id="clip-path-4"><rect class="cls-1" x="49.2" y="43.49" width="124.73" height="63.87"/></clipPath><clipPath id="clip-path-5"><path class="cls-2" d="M65.61,68.29,59.09,81.65s16.62,16.51,34.43.44l-1.61,7h29.17l-1.3-5.65s8.79,0,9.77,5.54-8.47,8.8-8.47,8.8l4.24,13.35s24.43-7.16,18.57-26.71-28.67-16.94-28.67-16.94h-7.8A23.07,23.07,0,0,0,92,73.13a12.62,12.62,0,0,1-8.72,3.09C73.19,76.22,65.61,68.29,65.61,68.29Z"/></clipPath></defs><g class="cls-3"><path class="cls-2" d="M37.67,176.85H52S53.41,205,76.6,205H96.9s25.74-3.27,25.74-27.05H138.1s.23,41.81-37.6,41.81l2.11,16.41h-33l2.81-16.41S38,219,37.67,176.85Z"/><g class="cls-4"><line class="cls-5" x1="66.31" y1="102.98" x2="72.2" y2="180.64"/><line class="cls-5" x1="77.08" y1="92.67" x2="82.97" y2="170.33"/></g></g><g class="cls-6"><polygon class="cls-7" points="160 98.7 39.91 98.7 52.76 15.33 172.84 15.33 160 98.7"/><g class="cls-8"><line class="cls-9" x1="79.25" y1="-47.87" x2="79.25" y2="86.8"/><line class="cls-9" x1="11.91" y1="19.47" x2="146.59" y2="19.47"/><line class="cls-9" x1="31.63" y1="-28.15" x2="126.86" y2="67.08"/><line class="cls-9" x1="31.63" y1="67.08" x2="126.86" y2="-28.15"/></g><rect class="cls-10" x="85.31" y="13.89" width="66.14" height="27.18"/><path class="cls-11" d="M106.39,30.69a3.71,3.71,0,0,1-1.65,1.11,7,7,0,0,1-2.38.4,4.67,4.67,0,0,1-2.42-.58,4,4,0,0,1-1.61-1.73,6.18,6.18,0,0,1-.59-2.67V26.5a6.65,6.65,0,0,1,.52-2.75A3.94,3.94,0,0,1,99.78,22a4.32,4.32,0,0,1,2.35-.63,4.44,4.44,0,0,1,3,.87,3.88,3.88,0,0,1,1.27,2.61h-2.12a2.12,2.12,0,0,0-.65-1.32,2.06,2.06,0,0,0-1.37-.42,2,2,0,0,0-1.69.85,4.45,4.45,0,0,0-.57,2.49v.68a4.27,4.27,0,0,0,.65,2.51,2.17,2.17,0,0,0,1.86.83,2.41,2.41,0,0,0,1.75-.53V28.09l-2,0V26.5l4.16,0Z"/><path class="cls-11" d="M124.39,29.73l-3.82,0-.71,2.18-2.32,0,3.87-10.61h2l4,10.55h-2.32ZM121.15,28l2.64,0L122.43,24Z"/><polygon class="cls-11" points="130.28 30.12 134.91 30.09 134.93 31.84 128.12 31.88 128.05 21.31 130.22 21.29 130.28 30.12"/><path class="cls-11" d="M141.31,29a1.13,1.13,0,0,0-.44-.95,5.75,5.75,0,0,0-1.57-.68,11.41,11.41,0,0,1-1.8-.71,3,3,0,0,1-1.82-2.61,2.51,2.51,0,0,1,.47-1.54,3.2,3.2,0,0,1,1.38-1.06,5.44,5.44,0,0,1,2-.39,4.82,4.82,0,0,1,2,.4A3.23,3.23,0,0,1,143,22.63a3.05,3.05,0,0,1,.5,1.69l-2.18,0a1.46,1.46,0,0,0-.47-1.13,1.86,1.86,0,0,0-1.29-.39,2.05,2.05,0,0,0-1.24.34,1.06,1.06,0,0,0-.43.9,1,1,0,0,0,.52.86,5.93,5.93,0,0,0,1.54.64,6.74,6.74,0,0,1,2.72,1.37A2.79,2.79,0,0,1,143.5,29a2.57,2.57,0,0,1-1,2.16,4.61,4.61,0,0,1-2.8.8,5.36,5.36,0,0,1-2.22-.43,3.53,3.53,0,0,1-1.54-1.22,3.18,3.18,0,0,1-.54-1.79l2.19,0q0,1.76,2.1,1.74a2,2,0,0,0,1.21-.33,1,1,0,0,0,.43-.88"/><path class="cls-11" d="M110.26,25.24a3.15,3.15,0,0,1,.48-.61l-1.56-1.71a5.25,5.25,0,0,0-1,1.29Z"/><path class="cls-11" d="M114.09,24a3.18,3.18,0,0,1,.66.41l1.57-1.71a5.9,5.9,0,0,0-1.39-.87Z"/><path class="cls-11" d="M117.68,24.55l-2.08,1a3,3,0,0,1,.21.74l2.31-.22a5.33,5.33,0,0,0-.44-1.55"/><path class="cls-11" d="M115.46,25.28l2.07-1a4.91,4.91,0,0,0-1-1.29L115,24.67a3.48,3.48,0,0,1,.46.61"/><path class="cls-11" d="M109.85,26.76v-.14l-2.31-.21c0,.12,0,.23,0,.35a5.41,5.41,0,0,0,.16,1.28l2.23-.64a2.73,2.73,0,0,1-.07-.64"/><path class="cls-11" d="M115.17,28.66a3.58,3.58,0,0,1-.57.53l1.22,2a5.27,5.27,0,0,0,1.2-1.11Z"/><path class="cls-11" d="M115.85,26.76a3.2,3.2,0,0,1-.07.63L118,28a5.4,5.4,0,0,0,.15-1.28c0-.11,0-.22,0-.33l-2.31.22s0,.07,0,.11"/><path class="cls-11" d="M110.57,28.7l-1.85,1.4a5.07,5.07,0,0,0,1.21,1.1l1.22-2a2.61,2.61,0,0,1-.58-.52"/><path class="cls-11" d="M109.89,26.28a2.64,2.64,0,0,1,.22-.74l-2.08-1a5.39,5.39,0,0,0-.46,1.57Z"/><path class="cls-11" d="M115.54,31.34l-1.22-2a3.41,3.41,0,0,1-.71.29l.43,2.28a5.3,5.3,0,0,0,1.5-.6"/><path class="cls-11" d="M115.69,27.72a2.78,2.78,0,0,1-.33.67l1.86,1.39a5.53,5.53,0,0,0,.7-1.42Z"/><path class="cls-11" d="M113.28,29.72a3.11,3.11,0,0,1-.43,0,2,2,0,0,1-.35,0L112.07,32a6.53,6.53,0,0,0,.78,0,4.91,4.91,0,0,0,.86-.07Z"/><path class="cls-11" d="M113,23.77a2.56,2.56,0,0,1,.74.14l.83-2.17a5.4,5.4,0,0,0-1.57-.3Z"/><path class="cls-11" d="M112.17,29.68a3.14,3.14,0,0,1-.74-.28l-1.22,2a5.34,5.34,0,0,0,1.53.59Z"/><path class="cls-11" d="M112,23.9a3.11,3.11,0,0,1,.75-.14V21.44a5.59,5.59,0,0,0-1.59.29Z"/><path class="cls-11" d="M110.36,28.43a3.13,3.13,0,0,1-.35-.71l-2.23.64a5.27,5.27,0,0,0,.74,1.48Z"/><path class="cls-11" d="M111,24.41a2.81,2.81,0,0,1,.64-.39l-.84-2.17a5.42,5.42,0,0,0-1.36.84Z"/><line class="cls-12" x1="60.78" y1="6.76" x2="60.78" y2="107.36"/><polygon class="cls-13" points="97.26 9.88 85.32 13.83 85.32 41.02 97.26 37.07 97.26 9.88"/><rect class="cls-10" x="60.65" y="9.78" width="36.66" height="27.18"/><path class="cls-11" d="M93,25.62a3.66,3.66,0,0,1-1.62,1.09A6.66,6.66,0,0,1,89,27.1a4.57,4.57,0,0,1-2.37-.57,3.84,3.84,0,0,1-1.57-1.69,6,6,0,0,1-.59-2.62v-.71a6.4,6.4,0,0,1,.5-2.69,3.91,3.91,0,0,1,1.5-1.75,5,5,0,0,1,5.19.24,3.76,3.76,0,0,1,1.25,2.56H90.83a2.1,2.1,0,0,0-.63-1.3,2,2,0,0,0-1.35-.4A1.86,1.86,0,0,0,87.2,19a4.22,4.22,0,0,0-.56,2.44v.66a4.13,4.13,0,0,0,.64,2.46,2.13,2.13,0,0,0,1.82.82,2.36,2.36,0,0,0,1.71-.53V23.08H88.86l0-1.57,4.08,0Z"/><path class="cls-11" d="M72.2,24.21a1,1,0,0,0-.39-.86,5,5,0,0,0-1.36-.63,14.09,14.09,0,0,1-1.6-.63,3,3,0,0,1-2-2.72,2.46,2.46,0,0,1,.5-1.52,3.28,3.28,0,0,1,1.42-1,5.6,5.6,0,0,1,2.06-.36,4.94,4.94,0,0,1,2,.39A3.16,3.16,0,0,1,74.2,18a2.93,2.93,0,0,1,.49,1.68H72.2a1.27,1.27,0,0,0-.38-1,1.53,1.53,0,0,0-1-.35,1.69,1.69,0,0,0-1.06.3.89.89,0,0,0-.39.75.91.91,0,0,0,.43.72,5.14,5.14,0,0,0,1.5.67,9.54,9.54,0,0,1,1.77.74,3,3,0,0,1,1.67,2.67,2.54,2.54,0,0,1-1,2.14,4.6,4.6,0,0,1-2.81.77,5.59,5.59,0,0,1-2.28-.45A3.39,3.39,0,0,1,67,25.41a3.25,3.25,0,0,1-.52-1.81H69a1.57,1.57,0,0,0,.43,1.23,2.05,2.05,0,0,0,1.4.39,1.6,1.6,0,0,0,1-.26.88.88,0,0,0,.36-.75"/><path class="cls-11" d="M75.59,26.86V16.7h3.27a4.86,4.86,0,0,1,2.42.61A4.24,4.24,0,0,1,83,19a5.27,5.27,0,0,1,.61,2.49V22A5.3,5.3,0,0,1,83,24.5a4.29,4.29,0,0,1-1.66,1.72,4.72,4.72,0,0,1-2.39.64ZM78,18.59V25h.85a1.91,1.91,0,0,0,1.62-.75A3.71,3.71,0,0,0,81.07,22v-.44a3.71,3.71,0,0,0-.56-2.22,2,2,0,0,0-1.65-.75Z"/><g class="cls-14"><path class="cls-15" d="M97.32,76.58,79.43,145.29h20.85l6.6-70.81S96,76.58,97.32,76.58Z"/><path class="cls-15" d="M116.32,76.58l11.29,68.71H106.76V74.48S117.62,76.58,116.32,76.58Z"/><polygon class="cls-11" points="118.83 55.28 118.89 53.31 113.72 53.14 117.49 49.6 114.79 46.71 111.01 50.25 111.18 45.08 107.22 44.95 107.06 50.12 103.52 46.35 100.63 49.05 104.17 52.83 99 52.66 98.97 53.61 98.97 53.61 98.94 54.64 98.87 56.62 104.04 56.78 100.27 60.32 102.97 63.21 106.75 59.67 106.58 64.84 110.54 64.97 110.7 59.8 114.24 63.58 117.13 60.87 113.59 57.09 118.76 57.26 118.79 56.31 118.79 56.31 118.83 55.28"/><path class="cls-11" d="M118.05,100.44a1.26,1.26,0,0,0,1.09,1.12l-1.89,1.79a1.27,1.27,0,0,0,1.22,2.15l-.61.57a1.27,1.27,0,0,0,1.72,1.88,1.27,1.27,0,0,0,2.14.93h0a1.35,1.35,0,0,0,.34.76,1.28,1.28,0,0,0,1.8.05l2.85-2.69.75-.64-3-7.87-.91.11h0l-4.4.45A1.27,1.27,0,0,0,118.05,100.44Z"/><path class="cls-11" d="M62.53,67.28a1.61,1.61,0,0,0-.86,1.82l-3-1.48a1.63,1.63,0,0,0-2.18.75,1.61,1.61,0,0,0,.15,1.68l-1-.47a1.63,1.63,0,0,0-1.49,2.9,1.64,1.64,0,0,0-.16,3h0a1.62,1.62,0,0,0,0,2.93l4.51,2.22,1.11.62,8.14-7.1-.54-1h0L64.72,68A1.63,1.63,0,0,0,62.53,67.28Z"/><path class="cls-2" d="M65.61,68.29,59.09,81.65s16.62,16.51,34.43.44l-1.61,7h29.17l-1.3-5.65s8.79,0,9.77,5.54-8.47,8.8-8.47,8.8l4.24,13.35s24.43-7.16,18.57-26.71-28.67-16.94-28.67-16.94h-7.8A23.07,23.07,0,0,0,92,73.13a12.62,12.62,0,0,1-8.72,3.09C73.19,76.22,65.61,68.29,65.61,68.29Z"/><g class="cls-16"><line class="cls-17" x1="66.33" y1="66.43" x2="72.56" y2="148.5"/><line class="cls-17" x1="77.71" y1="55.54" x2="83.94" y2="137.61"/><line class="cls-17" x1="89.09" y1="44.65" x2="95.32" y2="126.72"/><line class="cls-17" x1="100.47" y1="33.76" x2="106.7" y2="115.83"/><line class="cls-17" x1="113.19" y1="41.15" x2="119.42" y2="123.22"/><line class="cls-17" x1="124.57" y1="30.26" x2="130.8" y2="112.33"/><line class="cls-17" x1="135.95" y1="19.37" x2="142.18" y2="101.44"/><line class="cls-17" x1="147.34" y1="8.48" x2="153.56" y2="90.55"/><line class="cls-17" x1="86.99" y1="110.73" x2="169.07" y2="104.5"/><line class="cls-17" x1="76.1" y1="99.34" x2="158.18" y2="93.12"/><line class="cls-17" x1="51.65" y1="88.97" x2="147.29" y2="81.74"/><line class="cls-17" x1="59.04" y1="76.25" x2="154.68" y2="69.02"/><line class="cls-17" x1="61.71" y1="63.86" x2="143.79" y2="57.64"/><line class="cls-17" x1="50.82" y1="52.48" x2="132.9" y2="46.25"/><line class="cls-17" x1="39.93" y1="41.1" x2="122.01" y2="34.87"/></g><path class="cls-18" d="M107.59,58a4.5,4.5,0,0,1-.55-.19l.27-.58a2.64,2.64,0,0,0,3.49-1.31l.58.26A3.29,3.29,0,0,1,107.59,58Z"/><circle class="cls-18" cx="106.61" cy="52.22" r="0.61"/><circle class="cls-18" cx="111.52" cy="54.45" r="0.61"/><polygon class="cls-18" points="107.63 56.09 106.73 54.71 109 53.16 109.36 53.69 107.6 54.88 108.16 55.75 107.63 56.09"/></g></g></svg>