<svg id="Layer_1" data-name="Layer 1" xmlns="http://www.w3.org/2000/svg" xmlns:xlink="http://www.w3.org/1999/xlink" viewBox="0 0 185.83 107.36"><defs><style>.cls-1,.cls-13,.cls-23,.cls-26{fill:none;}.cls-2{fill:#f7941d;}.cls-10,.cls-3,.cls-5,.cls-9{fill:#fff;}.cls-4{fill:#fbb040;}.cls-5{stroke:#b1e3fa;stroke-width:2.1px;}.cls-13,.cls-23,.cls-26,.cls-5{stroke-miterlimit:10;}.cls-6{fill:#b1e3fa;}.cls-7{clip-path:url(#clip-path);}.cls-8{fill:#433013;}.cls-10,.cls-9{stroke:#00bdf2;stroke-linecap:round;stroke-linejoin:round;}.cls-9{stroke-width:0.59px;}.cls-10{stroke-width:0.43px;}.cls-11{clip-path:url(#clip-path-2);}.cls-12{fill:#1c75bc;}.cls-13,.cls-23,.cls-26{stroke:#fff;}.cls-13{stroke-width:0.42px;}.cls-14{clip-path:url(#clip-path-3);}.cls-15{fill:#231f20;}.cls-16{fill:#005774;}.cls-17{clip-path:url(#clip-path-4);}.cls-18{fill:#00aeef;}.cls-19{clip-path:url(#clip-path-5);}.cls-20{fill:#5393cf;}.cls-21{clip-path:url(#clip-path-6);}.cls-22{clip-path:url(#clip-path-7);}.cls-23{stroke-width:0.29px;}.cls-24{clip-path:url(#clip-path-8);}.cls-25{fill:#f15a29;}.cls-26{stroke-width:0.23px;}</style><clipPath id="clip-path"><rect class="cls-1" x="0.69" y="0.4" width="184.46" height="106.96"/></clipPath><clipPath id="clip-path-2"><circle class="cls-2" cx="43" cy="46.13" r="20.2"/></clipPath><clipPath id="clip-path-3"><circle class="cls-3" cx="41.4" cy="39.48" r="8.46"/></clipPath><clipPath id="clip-path-4"><circle class="cls-2" cx="134.86" cy="41.42" r="20.2"/></clipPath><clipPath id="clip-path-5"><circle class="cls-3" cx="134.86" cy="34.58" r="8.46"/></clipPath><clipPath id="clip-path-6"><circle class="cls-2" cx="83.17" cy="24.02" r="20.2"/></clipPath><clipPath id="clip-path-7"><path class="cls-4" d="M57.36,40.1l4.79-7a13.12,13.12,0,0,1,10.9-5.69l10.75.05A12.35,12.35,0,0,1,95.89,37.75l2.53,14.74-20.5,4.87L57.7,45.45Z"/></clipPath><clipPath id="clip-path-8"><circle class="cls-3" cx="83.17" cy="17.18" r="8.46"/></clipPath></defs><path class="cls-5" d="M130.13,94.85H73.43a1.81,1.81,0,0,1-1.81-2L77.76,22a1.82,1.82,0,0,1,1.81-1.66h56.71a1.82,1.82,0,0,1,1.81,2L132,93.19A1.82,1.82,0,0,1,130.13,94.85Z"/><path class="cls-5" d="M125.69,90.54H69a1.82,1.82,0,0,1-1.82-2l6.14-70.88A1.83,1.83,0,0,1,75.13,16h56.7a1.82,1.82,0,0,1,1.82,2L127.5,88.88A1.82,1.82,0,0,1,125.69,90.54Z"/><path class="cls-6" d="M121,87.71H64.27a1.81,1.81,0,0,1-1.81-2L68.6,14.85a1.82,1.82,0,0,1,1.81-1.66h56.71a1.82,1.82,0,0,1,1.81,2l-6.14,70.88A1.82,1.82,0,0,1,121,87.71Z"/><path class="cls-3" d="M79.05,33.46l-4.17.13c-.51,0-.85-.67-.76-1.5.06-.5.28-.87.56-1l.26,0c2.72-.09,44.8-.17,47.53-.26.43,0,.69.25.81.8.17.83-.16,1.67-.7,1.69C121.19,33.38,80.44,33.42,79.05,33.46Z"/><path class="cls-3" d="M76.28,43.78l-4.17.13c-.51,0-.85-.67-.75-1.51a1,1,0,0,1,.55-.95,1.15,1.15,0,0,1,.26,0c2.73-.09,44.81-.18,47.53-.27.43,0,.69.25.81.8.18.83-.16,1.67-.69,1.69C118.42,43.69,77.67,43.73,76.28,43.78Z"/><path class="cls-3" d="M75.63,53.11l-4.16.13c-.51,0-.86-.67-.76-1.5.05-.5.27-.87.55-1a.82.82,0,0,1,.26,0c2.73-.09,44.81-.17,47.53-.26.43,0,.69.25.81.8.18.83-.16,1.67-.69,1.69C117.78,53,77,53.07,75.63,53.11Z"/><path class="cls-3" d="M74.82,61.75l-4.17.13c-.51,0-.85-.67-.76-1.5.06-.5.28-.88.56-1a.75.75,0,0,1,.26,0c2.72-.09,44.8-.18,47.53-.26.43,0,.69.24.81.8.18.83-.16,1.66-.69,1.68C117,61.66,76.21,61.7,74.82,61.75Z"/><path class="cls-3" d="M74.82,74.14l-4.17.13c-.51,0-.85-.67-.76-1.51.06-.49.28-.87.56-1a1.09,1.09,0,0,1,.26,0c2.72-.09,44.8-.18,47.53-.26.43,0,.69.24.81.8.18.82-.16,1.66-.69,1.68C117,74.05,76.21,74.09,74.82,74.14Z"/><g class="cls-7"><path class="cls-8" d="M92.09,78,66.81,132.45H83.32L99.66,76.37S91.06,78,92.09,78Z"/><path class="cls-8" d="M100,78l17.93,54.42H101.4l-9-56.08S101,78,100,78Z"/><path class="cls-9" d="M74.52,68a1.38,1.38,0,0,0-1.71,0l.11-2.84a1.38,1.38,0,0,0-2.59-.73l0-.92a1.39,1.39,0,0,0-2.77-.15,1.41,1.41,0,0,0-.93-.42,1.39,1.39,0,0,0-1.44,1.33v0a1.39,1.39,0,0,0-2.29,1l-.16,4.26-.1,1.08L71,74.48l.62-.78h0L74.71,70A1.39,1.39,0,0,0,74.52,68Z"/><path class="cls-10" d="M122.49,98.31a1,1,0,0,0,1.05-.67l1.09,1.76a1,1,0,0,0,1.39.32,1,1,0,0,0,.47-.94l.35.57a1,1,0,0,0,1.72-1,1,1,0,0,0,.74-.13,1,1,0,0,0,.32-1.38h0a1,1,0,0,0,1-1.53L129,92.62l-.38-.68L122,93l0,.73h0l-.34,3.48A1,1,0,0,0,122.49,98.31Z"/><path class="cls-2" d="M99,70.46s7.69.55,16.2,8.15l17.18,14.75a.47.47,0,0,1-.29.83l-13.51.36L106.2,85.32l.57,4.13L88.13,84.72S68.58,93.84,61.8,70.58L75,69.4s6.64,11.09,14.64,3.86C93.28,70,99,70.46,99,70.46Z"/><circle class="cls-2" cx="43" cy="46.13" r="20.2"/><g class="cls-11"><path class="cls-12" d="M21.67,67.8l3-7.88A13.13,13.13,0,0,1,34,51.84l10.46-2.46a12.34,12.34,0,0,1,14.15,7.13l5.91,13.74L45.7,79.78,23.25,72.92Z"/><line class="cls-13" x1="43.14" y1="49.92" x2="47.49" y2="68.93"/><circle class="cls-3" cx="41.4" cy="39.48" r="8.46"/><g class="cls-14"><circle class="cls-15" cx="42.62" cy="31.87" r="2.92"/><path class="cls-15" d="M42.5,26.32c.06.26.76,7,.76,7l-10.46,8L30,36.09l5.91-7.41Z"/><circle class="cls-15" cx="39.19" cy="35.07" r="2.92"/><circle class="cls-15" cx="36.01" cy="38.43" r="2.92"/><circle class="cls-15" cx="34.89" cy="44.98" r="2.64"/></g><circle class="cls-3" cx="35.38" cy="42.29" r="2.64"/><path class="cls-16" d="M45.83,43.13a2.82,2.82,0,0,0,.46-.23l-.3-.48a2.36,2.36,0,0,1-3.25-.74l-.48.3A2.93,2.93,0,0,0,45.83,43.13Z"/><circle class="cls-16" cx="45.93" cy="37.44" r="0.55"/><circle class="cls-16" cx="41.48" cy="39.28" r="0.55"/><polygon class="cls-16" points="45.58 41.49 46.2 40.16 44.01 39.07 43.76 39.58 45.45 40.42 45.06 41.25 45.58 41.49"/></g><circle class="cls-2" cx="134.86" cy="41.42" r="20.2"/><g class="cls-17"><path class="cls-18" d="M151.92,54.8l-3.59-7.08c-1.85-3.64-4.91-5.82-8.16-5.8l-8,0c-4.47,0-8.28,4.4-9,10.39l-1.87,15,15.33,5,15.1-12.08Z"/><circle class="cls-15" cx="144.41" cy="39.42" r="2.92"/><circle class="cls-15" cx="148.49" cy="41.7" r="2.92"/><circle class="cls-15" cx="125.4" cy="38.45" r="2.92"/><circle class="cls-3" cx="134.86" cy="34.58" r="8.46"/><g class="cls-19"><circle class="cls-15" cx="130.09" cy="29.43" r="2.92"/><path class="cls-15" d="M126.54,25.16c.12.23,4,5.79,4,5.79l13.11-.86-1.29-5.72L133,22.64Z"/><circle class="cls-15" cx="134.77" cy="29.6" r="2.92"/><circle class="cls-15" cx="139.38" cy="30.06" r="2.92"/><circle class="cls-15" cx="142.93" cy="31.68" r="2.92"/><circle class="cls-15" cx="142.47" cy="38.4" r="2.64"/></g><circle class="cls-3" cx="141.37" cy="35.9" r="2.64"/><path class="cls-20" d="M129.86,38.88a2.55,2.55,0,0,1-.35-.38l.45-.35a2.35,2.35,0,0,0,3.3.43l.35.45A2.93,2.93,0,0,1,129.86,38.88Z"/><circle class="cls-20" cx="130.38" cy="33.57" r="0.55"/><circle class="cls-20" cx="135.04" cy="34.74" r="0.55"/><polygon class="cls-20" points="131.31 37.53 130.5 36.3 132.51 34.9 132.84 35.37 131.28 36.45 131.79 37.22 131.31 37.53"/><polygon class="cls-15" points="149.6 43.21 151.67 48.4 155.13 43.69 149.6 43.21"/><circle class="cls-15" cx="122.48" cy="40.6" r="2.92"/><polygon class="cls-15" points="121.37 42.1 119.3 47.29 115.84 42.59 121.37 42.1"/></g><circle class="cls-2" cx="83.17" cy="24.02" r="20.2"/><g class="cls-21"><path class="cls-4" d="M57.36,40.1l4.79-7a13.12,13.12,0,0,1,10.9-5.69l10.75.05A12.35,12.35,0,0,1,95.89,37.75l2.53,14.74-20.5,4.87L57.7,45.45Z"/><g class="cls-22"><line class="cls-23" x1="59.16" y1="29.77" x2="98.28" y2="29.77"/><line class="cls-23" x1="59.16" y1="31.65" x2="98.28" y2="31.65"/><line class="cls-23" x1="59.16" y1="33.54" x2="98.28" y2="33.54"/><line class="cls-23" x1="59.16" y1="35.43" x2="98.28" y2="35.43"/><line class="cls-23" x1="59.16" y1="37.31" x2="98.28" y2="37.31"/><line class="cls-23" x1="59.16" y1="39.2" x2="98.28" y2="39.2"/><line class="cls-23" x1="59.16" y1="41.09" x2="98.28" y2="41.09"/><line class="cls-23" x1="59.16" y1="42.97" x2="98.28" y2="42.97"/></g><path class="cls-15" d="M79.92,24.7l-5.33,1.43s-6.19-14,4.63-18c0,0,12.41-5.36,15.19,11.62l-4.13,1.41L87,17.56Z"/><circle class="cls-3" cx="83.17" cy="17.18" r="8.46"/><g class="cls-24"><path class="cls-15" d="M89.21,7.29c-.06.26,5.19,4.7,5.19,4.7L82.21,14.8l-1.63-1.24-1,1.8-6.38,1.12.44-6.2L82.3,6.39Z"/><circle class="cls-15" cx="75.1" cy="14.28" r="2.92"/><circle class="cls-15" cx="75.55" cy="21" r="2.64"/></g><circle class="cls-3" cx="76.66" cy="18.51" r="2.64"/><path class="cls-25" d="M88.16,21.49a3.33,3.33,0,0,0,.36-.39l-.45-.34a2.37,2.37,0,0,1-3.31.43l-.34.45A2.93,2.93,0,0,0,88.16,21.49Z"/><circle class="cls-25" cx="87.65" cy="16.18" r="0.55"/><circle class="cls-25" cx="82.98" cy="17.35" r="0.55"/><polygon class="cls-25" points="86.71 20.13 87.52 18.9 85.51 17.51 85.19 17.97 86.74 19.05 86.24 19.82 86.71 20.13"/></g><line class="cls-26" x1="18.03" y1="35.33" x2="18.03" y2="42.36"/><line class="cls-26" x1="14.52" y1="38.84" x2="21.55" y2="38.84"/><line class="cls-26" x1="15.55" y1="36.36" x2="20.52" y2="41.33"/><line class="cls-26" x1="15.55" y1="41.33" x2="20.52" y2="36.36"/><line class="cls-26" x1="113.44" y1="17.86" x2="113.44" y2="24.89"/><line class="cls-26" x1="109.93" y1="21.38" x2="116.95" y2="21.38"/><line class="cls-26" x1="110.96" y1="18.89" x2="115.92" y2="23.86"/><line class="cls-26" x1="110.96" y1="23.86" x2="115.92" y2="18.89"/><polygon class="cls-3" points="111 63.15 107.19 61.65 110.94 60.01 109.69 57.14 105.94 58.78 107.43 54.97 104.51 53.82 103.02 57.63 101.38 53.88 99.64 54.64 99.2 54.83 99.2 54.83 98.5 55.13 100.14 58.89 96.33 57.39 96.06 58.09 96.06 58.09 95.76 58.85 95.19 60.31 99 61.81 95.25 63.45 95.55 64.14 95.55 64.14 96.2 65.63 96.2 65.63 96.5 66.32 100.25 64.68 98.76 68.49 101.68 69.64 103.17 65.83 104.81 69.58 105.94 69.08 106.99 68.63 106.99 68.63 107.69 68.32 106.05 64.57 109.86 66.07 110.14 65.36 110.14 65.36 110.73 63.85 110.73 63.85 111 63.15"/><path class="cls-16" d="M102,64a2.26,2.26,0,0,1-.43-.17l.23-.45a2.1,2.1,0,0,0,2.81-.92l.45.23A2.6,2.6,0,0,1,102,64Z"/><circle class="cls-16" cx="101.37" cy="59.42" r="0.49"/><circle class="cls-16" cx="105.18" cy="61.36" r="0.49"/><polygon class="cls-16" points="102.04 62.52 101.38 61.39 103.22 60.25 103.49 60.68 102.06 61.56 102.47 62.27 102.04 62.52"/></g></svg>