<svg id="Layer_1" data-name="Layer 1" xmlns="http://www.w3.org/2000/svg" xmlns:xlink="http://www.w3.org/1999/xlink" viewBox="0 0 185.83 107.36"><defs><style>.cls-1,.cls-20,.cls-9{fill:none;}.cls-2{fill:#b1e3fa;}.cls-3{fill:#f89824;}.cls-4{clip-path:url(#clip-path);}.cls-5{fill:#433013;}.cls-12,.cls-6,.cls-7{fill:#fff;}.cls-6,.cls-7{stroke:#00bdf2;stroke-linecap:round;stroke-linejoin:round;}.cls-6{stroke-width:0.78px;}.cls-7{stroke-width:0.79px;}.cls-8{clip-path:url(#clip-path-2);}.cls-20,.cls-9{stroke:#fff;stroke-miterlimit:10;}.cls-9{stroke-width:0.26px;}.cls-10{fill:#91d2c1;}.cls-11{fill:#00bdf2;}.cls-13{fill:#005774;}.cls-14{fill:#5fccf5;}.cls-15{fill:#2cc2ee;}.cls-16{clip-path:url(#clip-path-3);}.cls-17{clip-path:url(#clip-path-4);}.cls-18{fill:#f47d5e;}.cls-19{clip-path:url(#clip-path-5);}.cls-20{stroke-width:0.25px;}</style><clipPath id="clip-path"><rect class="cls-1" x="19.14" y="11.86" width="147.55" height="95.5"/></clipPath><clipPath id="clip-path-2"><path class="cls-2" d="M37.67,55.6H52s1.4,28.11,24.59,28.11H96.9s25.74-3.27,25.74-27.06H138.1s.23,41.82-37.6,41.82l2.11,16.4h-33l2.81-16.4S38,97.77,37.67,55.6Z"/></clipPath><clipPath id="clip-path-3"><rect class="cls-1" x="0.1" y="-121.57" width="184.95" height="107.01"/></clipPath><clipPath id="clip-path-4"><rect class="cls-1" x="49.2" y="-77.76" width="124.73" height="63.87"/></clipPath><clipPath id="clip-path-5"><path class="cls-2" d="M65.61-53,59.09-39.6s16.62,16.5,34.43.43l-1.61,7h29.17l-1.3-5.65s8.79,0,9.77,5.54-8.47,8.8-8.47,8.8l4.24,13.36s24.43-7.17,18.57-26.72-28.67-16.94-28.67-16.94h-7.8A23.12,23.12,0,0,0,92-48.13,12.62,12.62,0,0,1,83.29-45C73.19-45,65.61-53,65.61-53Z"/></clipPath></defs><polygon class="cls-3" points="145.45 96.24 24.13 96.24 37.11 12.01 158.43 12.01 145.45 96.24"/><g class="cls-4"><polygon class="cls-5" points="75.23 95.5 63.85 164.71 84.86 164.71 84.86 93.39 75.23 95.5"/><path class="cls-5" d="M97.1,95.5l11.38,69.21h-21V93.39S98.41,95.5,97.1,95.5Z"/><path class="cls-6" d="M51.62,47.15a1.84,1.84,0,0,0-2.08.9L48.1,44.58a1.84,1.84,0,0,0-3.52.56L44.12,44a1.84,1.84,0,0,0-2.4-1,1.81,1.81,0,0,0-1,2.34,1.84,1.84,0,0,0-2.35,2.42v0a1.78,1.78,0,0,0-1.2.07,1.82,1.82,0,0,0-1,2.39l2.17,5.21.48,1.34H51l.3-1.29h0l1.63-6.16A1.84,1.84,0,0,0,51.62,47.15Z"/><path class="cls-7" d="M123.65,47.71a1.85,1.85,0,0,1,2.09.91l1.46-3.49a1.84,1.84,0,0,1,3.54.56l.47-1.12a1.85,1.85,0,0,1,3.43,1.37A1.81,1.81,0,0,1,136,46a1.86,1.86,0,0,1,1,2.42v0a1.81,1.81,0,0,1,1.21.07,1.84,1.84,0,0,1,1,2.42L137,56.12l-.49,1.35H124.3L124,56.18h0L122.33,50A1.85,1.85,0,0,1,123.65,47.71Z"/><path class="cls-2" d="M37.67,55.6H52s1.4,28.11,24.59,28.11H96.9s25.74-3.27,25.74-27.06H138.1s.23,41.82-37.6,41.82l2.11,16.4h-33l2.81-16.4S38,97.77,37.67,55.6Z"/><g class="cls-8"><line class="cls-9" x1="29.13" y1="99.75" x2="35.02" y2="177.41"/><line class="cls-9" x1="39.9" y1="89.45" x2="45.79" y2="167.11"/><line class="cls-9" x1="50.66" y1="79.14" x2="56.56" y2="156.8"/><line class="cls-9" x1="61.43" y1="68.84" x2="67.33" y2="146.5"/><line class="cls-9" x1="72.2" y1="58.54" x2="78.1" y2="136.2"/><line class="cls-9" x1="82.97" y1="48.23" x2="88.86" y2="125.89"/><line class="cls-9" x1="93.74" y1="37.93" x2="99.63" y2="115.59"/><line class="cls-9" x1="104.51" y1="27.62" x2="110.4" y2="105.28"/><line class="cls-9" x1="115.28" y1="17.32" x2="121.17" y2="94.98"/><line class="cls-9" x1="126.05" y1="7.01" x2="131.94" y2="84.67"/><line class="cls-9" x1="136.82" y1="-3.29" x2="142.71" y2="74.37"/><line class="cls-9" x1="101.1" y1="30.88" x2="178.43" y2="40.2"/><line class="cls-9" x1="90.33" y1="41.19" x2="167.66" y2="50.5"/><line class="cls-9" x1="79.56" y1="51.49" x2="156.89" y2="60.81"/><line class="cls-9" x1="14.55" y1="54.64" x2="146.12" y2="71.11"/><line class="cls-9" x1="19.93" y1="67.02" x2="135.35" y2="81.41"/><line class="cls-9" x1="32.58" y1="81.28" x2="124.58" y2="91.72"/><line class="cls-9" x1="36.49" y1="92.71" x2="113.81" y2="102.02"/><line class="cls-9" x1="25.72" y1="103.01" x2="103.04" y2="112.33"/><line class="cls-9" x1="1.69" y1="43.54" x2="7.59" y2="121.2"/><line class="cls-9" x1="12.46" y1="33.24" x2="18.35" y2="110.9"/><line class="cls-9" x1="23.23" y1="22.94" x2="29.12" y2="100.6"/><line class="cls-9" x1="34" y1="12.63" x2="39.89" y2="90.29"/><line class="cls-9" x1="44.77" y1="2.33" x2="50.66" y2="79.99"/><line class="cls-9" x1="55.54" y1="-7.98" x2="61.43" y2="69.68"/><line class="cls-9" x1="66.31" y1="-18.28" x2="72.2" y2="59.38"/><line class="cls-9" x1="77.08" y1="-28.59" x2="82.97" y2="49.07"/><line class="cls-9" x1="41.36" y1="5.59" x2="118.69" y2="14.9"/><line class="cls-9" x1="30.59" y1="15.89" x2="107.92" y2="25.21"/><line class="cls-9" x1="19.82" y1="26.2" x2="97.15" y2="35.51"/><line class="cls-9" x1="9.05" y1="36.5" x2="86.38" y2="45.81"/><line class="cls-9" x1="-1.71" y1="46.81" x2="75.61" y2="56.12"/><line class="cls-9" x1="-34.02" y1="77.72" x2="43.3" y2="87.03"/><line class="cls-9" x1="-44.79" y1="88.02" x2="32.53" y2="97.34"/><line class="cls-9" x1="-55.56" y1="98.33" x2="21.76" y2="107.64"/></g><g id="VJZ3vz"><path class="cls-10" d="M112.42,23l9,2.8a2.8,2.8,0,0,1,.27.4l1.88,3.55a.85.85,0,0,1,.07.76c-.09.23-.15.48-.23.72a3.31,3.31,0,0,0,.42-.24.86.86,0,0,1,1.2.23c.35.49.69,1,1,1.48a1,1,0,0,1,.13.5.91.91,0,0,1-.5.8l-3.86,2.65a.54.54,0,0,0-.15.21c-.09.26-.16.52-.24.78-.47,1.51-1,3-1.41,4.53a1.27,1.27,0,0,1-1.65.87l-10.83-3.37a1.83,1.83,0,0,1-.28-.1,1.22,1.22,0,0,1-.59-1.48q2.17-7,4.34-14A1.26,1.26,0,0,1,112.41,23Zm7.86,14.74-.17.12-1.91,1.31a.89.89,0,0,1-.37.17c-.81.07-1.63.14-2.44.19a.54.54,0,0,1-.52-.8c.3-.64.61-1.27.91-1.91a1.28,1.28,0,0,1,.45-.58c1.87-1.27,3.73-2.56,5.59-3.85a.51.51,0,0,0,.2-.26c.19-.59.37-1.18.55-1.78a.39.39,0,0,0,0-.26c-.56-1.08-1.13-2.16-1.7-3.23a.4.4,0,0,0-.22-.18l-8.18-2.54c-.23-.07-.26-.05-.33.18q-2.18,7-4.34,14c-.08.23-.06.26.17.34L118.69,42c.24.07.26.06.34-.19.39-1.28.79-2.57,1.19-3.85Zm-2.08.11,5.47-3.77L122.91,33l-5.47,3.77Zm5.61-5.49.76,1.1.49-.34L124.3,32Zm-6.63,5.94-.53-.77-.4.84Z"/><path class="cls-10" d="M120.28,37.72l-.06.21c-.4,1.28-.8,2.57-1.19,3.85-.08.25-.1.26-.34.19L108,38.64c-.23-.08-.25-.11-.17-.34q2.16-7,4.34-14c.07-.23.1-.25.33-.18l8.18,2.54a.4.4,0,0,1,.22.18c.57,1.07,1.14,2.15,1.7,3.23a.39.39,0,0,1,0,.26c-.18.6-.36,1.19-.55,1.78a.51.51,0,0,1-.2.26c-1.86,1.29-3.72,2.58-5.59,3.85a1.28,1.28,0,0,0-.45.58c-.3.64-.61,1.27-.91,1.91a.54.54,0,0,0,.52.8c.81,0,1.63-.12,2.44-.19a.89.89,0,0,0,.37-.17l1.91-1.31Zm-4.31-7-3-.94-.16,0a.54.54,0,0,0-.67.51.55.55,0,0,0,.41.55l6.25,1.94.15,0a.52.52,0,0,0,.52-.26.46.46,0,0,0,0-.56.76.76,0,0,0-.37-.26Zm.41-1.31,3.13,1a.54.54,0,0,0,.74-.53c0-.26-.17-.43-.49-.53l-6.1-1.9-.2,0a.5.5,0,0,0-.54.26.54.54,0,0,0,.35.81Zm-2.62,4.35,2,.62a.52.52,0,0,0,.68-.36.54.54,0,0,0-.37-.68c-1.33-.41-2.66-.83-4-1.23a.71.71,0,0,0-.38,0,.52.52,0,0,0-.33.52.52.52,0,0,0,.37.49Zm-1.12,1.1-1.26-.39a.55.55,0,1,0-.33,1l2.53.78a.53.53,0,0,0,.7-.35.52.52,0,0,0-.38-.68Z"/><path class="cls-10" d="M118.2,37.83l-.76-1.11L122.91,33l.76,1.11Z"/><path class="cls-10" d="M123.81,32.34l.49-.34.76,1.1-.49.34Z"/><path class="cls-10" d="M117.18,38.28l-.93.07.4-.84Z"/><path class="cls-10" d="M116,30.76l3.09,1a.76.76,0,0,1,.37.26.46.46,0,0,1,0,.56.52.52,0,0,1-.52.26l-.15,0-6.25-1.94a.55.55,0,0,1-.41-.55.54.54,0,0,1,.67-.51l.16,0Z"/><path class="cls-10" d="M116.38,29.45l-3.11-1a.54.54,0,0,1-.35-.81.5.5,0,0,1,.54-.26l.2,0,6.1,1.9c.32.1.48.27.49.53a.54.54,0,0,1-.74.53Z"/><path class="cls-10" d="M113.76,33.8l-2-.62a.52.52,0,0,1-.37-.49.52.52,0,0,1,.33-.52.71.71,0,0,1,.38,0c1.33.4,2.66.82,4,1.23a.54.54,0,0,1,.37.68.52.52,0,0,1-.68.36Z"/><path class="cls-10" d="M112.64,34.9l1.26.4a.52.52,0,0,1,.38.68.53.53,0,0,1-.7.35l-2.53-.78a.55.55,0,1,1,.33-1Z"/><path class="cls-11" d="M112.42,23l9,2.8a2.8,2.8,0,0,1,.27.4l1.88,3.55a.85.85,0,0,1,.07.76c-.09.23-.15.48-.23.72a3.31,3.31,0,0,0,.42-.24.86.86,0,0,1,1.2.23c.35.49.69,1,1,1.48a1,1,0,0,1,.13.5.91.91,0,0,1-.5.8l-3.86,2.65a.54.54,0,0,0-.15.21c-.09.26-.16.52-.24.78-.47,1.51-1,3-1.41,4.53a1.27,1.27,0,0,1-1.65.87l-10.83-3.37a1.83,1.83,0,0,1-.28-.1,1.22,1.22,0,0,1-.59-1.48q2.17-7,4.34-14A1.26,1.26,0,0,1,112.41,23Zm7.86,14.74-.17.12-1.91,1.31a.89.89,0,0,1-.37.17c-.81.07-1.63.14-2.44.19a.54.54,0,0,1-.52-.8c.3-.64.61-1.27.91-1.91a1.28,1.28,0,0,1,.45-.58c1.87-1.27,3.73-2.56,5.59-3.85a.51.51,0,0,0,.2-.26c.19-.59.37-1.18.55-1.78a.39.39,0,0,0,0-.26c-.56-1.08-1.13-2.16-1.7-3.23a.4.4,0,0,0-.22-.18l-8.18-2.54c-.23-.07-.26-.05-.33.18q-2.18,7-4.34,14c-.08.23-.06.26.17.34L118.69,42c.24.07.26.06.34-.19.39-1.28.79-2.57,1.19-3.85Zm-2.08.11,5.47-3.77L122.91,33l-5.47,3.77Zm5.61-5.49.76,1.1.49-.34L124.3,32Zm-6.63,5.94-.53-.77-.4.84Z"/><path class="cls-12" d="M120.28,37.72l-.06.21c-.4,1.28-.8,2.57-1.19,3.85-.08.25-.1.26-.34.19L108,38.64c-.23-.08-.25-.11-.17-.34q2.16-7,4.34-14c.07-.23.1-.25.33-.18l8.18,2.54a.4.4,0,0,1,.22.18c.57,1.07,1.14,2.15,1.7,3.23a.39.39,0,0,1,0,.26c-.18.6-.36,1.19-.55,1.78a.51.51,0,0,1-.2.26c-1.86,1.29-3.72,2.58-5.59,3.85a1.28,1.28,0,0,0-.45.58c-.3.64-.61,1.27-.91,1.91a.54.54,0,0,0,.52.8c.81,0,1.63-.12,2.44-.19a.89.89,0,0,0,.37-.17l1.91-1.31Zm-4.31-7-3-.94-.16,0a.54.54,0,0,0-.67.51.55.55,0,0,0,.41.55l6.25,1.94.15,0a.52.52,0,0,0,.52-.26.46.46,0,0,0,0-.56.76.76,0,0,0-.37-.26Zm.41-1.31,3.13,1a.54.54,0,0,0,.74-.53c0-.26-.17-.43-.49-.53l-6.1-1.9-.2,0a.5.5,0,0,0-.54.26.54.54,0,0,0,.35.81Zm-2.62,4.35,2,.62a.52.52,0,0,0,.68-.36.54.54,0,0,0-.37-.68c-1.33-.41-2.66-.83-4-1.23a.71.71,0,0,0-.38,0,.52.52,0,0,0-.33.52.52.52,0,0,0,.37.49Zm-1.12,1.1-1.26-.39a.55.55,0,1,0-.33,1l2.53.78a.53.53,0,0,0,.7-.35.52.52,0,0,0-.38-.68Z"/><path class="cls-12" d="M118.2,37.83l-.76-1.11L122.91,33l.76,1.11Z"/><path class="cls-12" d="M123.81,32.34l.49-.34.76,1.1-.49.34Z"/><path class="cls-12" d="M117.18,38.28l-.93.07.4-.84Z"/><path class="cls-11" d="M116,30.76l3.09,1a.76.76,0,0,1,.37.26.46.46,0,0,1,0,.56.52.52,0,0,1-.52.26l-.15,0-6.25-1.94a.55.55,0,0,1-.41-.55.54.54,0,0,1,.67-.51l.16,0Z"/><path class="cls-11" d="M116.38,29.45l-3.11-1a.54.54,0,0,1-.35-.81.5.5,0,0,1,.54-.26l.2,0,6.1,1.9c.32.1.48.27.49.53a.54.54,0,0,1-.74.53Z"/><path class="cls-11" d="M113.76,33.8l-2-.62a.52.52,0,0,1-.37-.49.52.52,0,0,1,.33-.52.71.71,0,0,1,.38,0c1.33.4,2.66.82,4,1.23a.54.54,0,0,1,.37.68.52.52,0,0,1-.68.36Z"/><path class="cls-11" d="M112.64,34.9l1.26.4a.52.52,0,0,1,.38.68.53.53,0,0,1-.7.35l-2.53-.78a.55.55,0,1,1,.33-1Z"/></g><g id="BR1PBp"><path class="cls-11" d="M66,48.17l-.41.06-2.45-.82-7.92-2.63a1.22,1.22,0,0,1-.5-.3.81.81,0,0,1,.19-1.22l2.86-2,.21-.16L57.73,41,54.51,40a.85.85,0,0,1-.23-1.57c.94-.64,1.87-1.29,2.8-1.94l.19-.15L57,36.22l-3.26-1.08a.83.83,0,0,1-.64-.74.86.86,0,0,1,.44-.81l8.66-6a1.16,1.16,0,0,1,1.13-.17L71,29.93c.83.27,1.66.57,2.5.82a.88.88,0,0,1,.38,1.35l-.29.23L70.8,34.24l-.19.15.24.08,3.24,1.08a.78.78,0,0,1,.6.62.82.82,0,0,1-.38.93c-.94.64-1.87,1.3-2.8,1.95l-.21.15.25.09,3.22,1.07a1.1,1.1,0,0,1,.42.24A.84.84,0,0,1,75,41.9l-4.19,2.91Zm5.38-16.35-.13-.05-8.08-2.68a.45.45,0,0,0-.28.05L56,34a1.31,1.31,0,0,0-.15.12l.15,0,8,2.67a.31.31,0,0,0,.32-.06l4.54-3.16ZM56.5,38.88l.19.07,8,2.65a.34.34,0,0,0,.32-.05l6.88-4.79.17-.13-.22-.08-2.75-.92a.36.36,0,0,0-.37,0l-3.85,2.68a1,1,0,0,1-1,.14L59.44,37a.41.41,0,0,0-.27,0Zm16.27,2.57-.23-.09-2.77-.92a.32.32,0,0,0-.35.06l-3.85,2.67a1,1,0,0,1-1,.14l-4.44-1.48a.35.35,0,0,0-.34.05c-.72.51-1.45,1-2.18,1.51l-.42.3.22.08,7.92,2.63a.37.37,0,0,0,.38,0l4.91-3.41Z"/><path class="cls-12" d="M71.38,31.82l-2.52,1.75-4.54,3.16a.31.31,0,0,1-.32.06l-8-2.67-.15,0A1.31,1.31,0,0,1,56,34l6.92-4.81a.45.45,0,0,1,.28-.05l8.08,2.68Z"/><path class="cls-12" d="M56.5,38.88,59.17,37a.41.41,0,0,1,.27,0l4.45,1.48a1,1,0,0,0,1-.14l3.85-2.68a.36.36,0,0,1,.37,0l2.75.92.22.08-.17.13L65,41.55a.34.34,0,0,1-.32.05l-8-2.65Z"/><path class="cls-12" d="M72.77,41.45l-2.14,1.49-4.91,3.41a.37.37,0,0,1-.38,0l-7.92-2.63-.22-.08.42-.3c.73-.5,1.46-1,2.18-1.51a.35.35,0,0,1,.34-.05l4.44,1.48a1,1,0,0,0,1-.14l3.85-2.67a.32.32,0,0,1,.35-.06l2.77.92Z"/></g><polygon class="cls-12" points="100.06 71.89 100.35 70.75 94.15 69.13 99.68 65.89 98.44 63.77 97.8 62.68 97.8 62.68 97.2 61.66 91.67 64.9 93.29 58.7 90.92 58.08 89.68 57.76 89.68 57.76 88.54 57.46 86.93 63.66 83.69 58.14 79.45 60.62 82.69 66.14 76.49 64.53 76.2 65.67 76.2 65.67 75.56 68.13 75.56 68.13 75.26 69.28 81.46 70.89 75.93 74.13 76.53 75.15 76.53 75.15 77.17 76.25 78.41 78.36 83.94 75.12 82.32 81.32 84.69 81.94 85.93 82.26 85.93 82.26 87.07 82.56 88.69 76.36 91.93 81.89 96.16 79.41 92.92 73.88 99.12 75.49 99.73 73.12 100.06 71.89 100.06 71.89"/><path class="cls-13" d="M90.57,74.41A5,5,0,0,0,91.2,74l-.47-.64a3.26,3.26,0,0,1-4.56-.73l-.64.46A4.07,4.07,0,0,0,90.57,74.41Z"/><circle class="cls-13" cx="90.2" cy="66.52" r="0.76"/><circle class="cls-13" cx="84.2" cy="69.45" r="0.76"/><polygon class="cls-13" points="90.08 72.16 90.82 70.25 87.69 68.94 87.39 69.67 89.81 70.68 89.34 71.87 90.08 72.16"/><g id="_4Wa2KM" data-name="4Wa2KM"><path class="cls-14" d="M69,56l-.09-.32v0a1.9,1.9,0,0,1,.1-1.08,1.63,1.63,0,0,1,1.25-1.06,1.65,1.65,0,0,1,1.24.27l.24.18c0-.13.1-.26.16-.38a1.61,1.61,0,0,1,1.17-.89,1.56,1.56,0,0,1,1.27.29,1.9,1.9,0,0,1,.83,1.86,4.16,4.16,0,0,1-.46,1.38,10.4,10.4,0,0,1-1.55,2.18.19.19,0,0,1-.22.06A9.71,9.71,0,0,1,71.59,58a7,7,0,0,1-1.7-.93,2.86,2.86,0,0,1-.72-.79C69.12,56.19,69.08,56.1,69,56Z"/><path class="cls-12" d="M69,56l-.09-.32v0a1.9,1.9,0,0,1,.1-1.08,1.63,1.63,0,0,1,1.25-1.06,1.65,1.65,0,0,1,1.24.27l.24.18c0-.13.1-.26.16-.38a1.61,1.61,0,0,1,1.17-.89,1.56,1.56,0,0,1,1.27.29,1.9,1.9,0,0,1,.83,1.86,4.16,4.16,0,0,1-.46,1.38,10.4,10.4,0,0,1-1.55,2.18.19.19,0,0,1-.22.06A9.71,9.71,0,0,1,71.59,58a7,7,0,0,1-1.7-.93,2.86,2.86,0,0,1-.72-.79C69.12,56.19,69.08,56.1,69,56Z"/></g><circle class="cls-12" cx="90.24" cy="22.7" r="4.49"/><circle class="cls-12" cx="83.06" cy="35.11" r="4.49"/><circle class="cls-12" cx="97.28" cy="35.08" r="4.49"/><g id="YcU1na"><path class="cls-15" d="M78.35,34.49c.06-.27.11-.54.19-.81A4.88,4.88,0,0,1,87,31.91l.13.14c.73-.47,1.43-1,2.18-1.39a1,1,0,0,0,.59-1.12c0-.59,0-1.18,0-1.77,0-.16,0-.23-.21-.25a4.9,4.9,0,0,1-4.24-3.89,4.8,4.8,0,0,1,.85-3.83.47.47,0,0,1,.26-.21.52.52,0,0,1,.36.13.33.33,0,0,1,0,.45,3.85,3.85,0,0,0-.73,1.59A4.15,4.15,0,0,0,87,25.33a5.46,5.46,0,0,1,1.7-1.9A2,2,0,0,1,89,20.65a2,2,0,0,1,2.85,2.74c.31.29.64.56.93.87s.51.66.77,1l.11-.13a4.19,4.19,0,0,0-2.7-6.59,4.1,4.1,0,0,0-2.93.61l-.06,0c-.25.16-.45.13-.57-.06s-.07-.39.18-.52A8.38,8.38,0,0,1,89,18a4.89,4.89,0,1,1,2.12,9.53l-.51.08v1.5c0,.35,0,.7,0,1.05a.27.27,0,0,0,.09.21L93.31,32c.29-.26.54-.51.82-.73a4.81,4.81,0,0,1,4.53-1l.15.05a.35.35,0,0,1-.18.68l-.43-.11a4.17,4.17,0,0,0-5.06,3.69,4.08,4.08,0,0,0,.82,2.9l.09.1a12.39,12.39,0,0,1,.77-1,12.45,12.45,0,0,1,.91-.86,2,2,0,0,1,.35-2.81,2,2,0,0,1,2.54.09,2,2,0,0,1,.23,2.74,5.46,5.46,0,0,1,1.69,1.88,4,4,0,0,0,.9-2.07,4.13,4.13,0,0,0-1.65-3.92c-.26-.2-.29-.46-.07-.62a.35.35,0,0,1,.46,0,4.76,4.76,0,0,1,1.94,3.17,4.89,4.89,0,1,1-9.19-1.41,1,1,0,0,0,.06-.14l-.14-.11L90.43,31c-.1,0-.17-.1-.29,0L87.61,32.6l0,0c.16.53.35,1,.46,1.53a4.89,4.89,0,0,1-3.72,5.63,5.4,5.4,0,0,1-.58.09.36.36,0,0,1-.43-.31c0-.2.11-.35.35-.38a4.35,4.35,0,0,0,2.15-.88,1.53,1.53,0,0,0,.15-.13,4.46,4.46,0,0,0-1.53-1.8l-.31-.2c-.34-.21-.37-.44-.07-.7a1.27,1.27,0,0,0,.07-1.91,1.27,1.27,0,0,0-1.79,1.81,1.31,1.31,0,0,0,.12.11c.29.26.25.48-.08.7a7.92,7.92,0,0,0-.91.71,3.79,3.79,0,0,0-.92,1.31,4.08,4.08,0,0,0,1.62.85c.37.1.51.25.43.5s-.26.28-.62.18a4.88,4.88,0,0,1-3.57-4,.5.5,0,0,0-.05-.13Zm8.13,3.13a4.17,4.17,0,1,0-6.46,0,5.33,5.33,0,0,1,1.68-1.88A2,2,0,0,1,81.89,33a2,2,0,0,1,2.48-.18A1.92,1.92,0,0,1,85.15,34a2,2,0,0,1-.36,1.8A5.51,5.51,0,0,1,86.48,37.62Zm13.55.5c-.16-.25-.31-.51-.48-.75a4.5,4.5,0,0,0-1.35-1.22c-.38-.22-.4-.44-.08-.72l.11-.11a1.27,1.27,0,0,0-1.3-2.09,1.23,1.23,0,0,0-.87.94,1.24,1.24,0,0,0,.39,1.24.78.78,0,0,1,.23.29c.07.22-.08.35-.26.45a4.49,4.49,0,0,0-1.82,2A4.15,4.15,0,0,0,100,38.12ZM93,25.83c-.12-.21-.24-.44-.38-.65a4.45,4.45,0,0,0-1.5-1.36.36.36,0,0,1-.06-.64l.15-.14a1.29,1.29,0,0,0,0-1.79,1.28,1.28,0,1,0-1.7,1.9c.21.17.27.38.13.54a.79.79,0,0,1-.25.19,4.45,4.45,0,0,0-1.77,2A4.13,4.13,0,0,0,93,25.83Z"/><path class="cls-12" d="M86.48,37.62a5.51,5.51,0,0,0-1.69-1.87,2,2,0,0,0,.36-1.8,1.92,1.92,0,0,0-.78-1.09,2,2,0,0,0-2.48.18,2,2,0,0,0-.19,2.72A5.33,5.33,0,0,0,80,37.64a4.11,4.11,0,0,1,.12-5.43,4.17,4.17,0,0,1,6.34,5.41Z"/><path class="cls-12" d="M100,38.12a4.15,4.15,0,0,1-5.43,0,4.49,4.49,0,0,1,1.82-2c.18-.1.33-.23.26-.45a.78.78,0,0,0-.23-.29,1.24,1.24,0,0,1-.39-1.24,1.23,1.23,0,0,1,.87-.94,1.27,1.27,0,0,1,1.3,2.09l-.11.11c-.32.28-.3.5.08.72a4.5,4.5,0,0,1,1.35,1.22C99.72,37.61,99.87,37.87,100,38.12Z"/><path class="cls-12" d="M93,25.83a4.13,4.13,0,0,1-5.41,0,4.45,4.45,0,0,1,1.77-2,.79.79,0,0,0,.25-.19c.14-.16.08-.37-.13-.54a1.28,1.28,0,1,1,1.7-1.9,1.29,1.29,0,0,1,0,1.79l-.15.14a.36.36,0,0,0,.06.64,4.45,4.45,0,0,1,1.5,1.36C92.72,25.39,92.84,25.62,93,25.83Z"/></g></g><g class="cls-16"><g class="cls-17"><polygon class="cls-18" points="99.28 19.08 84.85 19.08 66.73 32.58 99.28 32.58 99.28 19.08"/><path class="cls-5" d="M97.32-44.67,79.43,24h20.85l6.6-70.81S96-44.67,97.32-44.67Z"/><polygon class="cls-18" points="109.49 19.08 123.92 19.08 142.04 32.58 109.49 32.58 109.49 19.08"/><path class="cls-5" d="M116.32-44.67,127.61,24H106.76V-46.77S117.62-44.67,116.32-44.67Z"/><path class="cls-2" d="M65.61-53,59.09-39.6s16.62,16.5,34.43.43l-1.61,7h29.17l-1.3-5.65s8.79,0,9.77,5.54-8.47,8.8-8.47,8.8l4.24,13.36s24.43-7.17,18.57-26.72-28.67-16.94-28.67-16.94h-7.8A23.12,23.12,0,0,0,92-48.13,12.62,12.62,0,0,1,83.29-45C73.19-45,65.61-53,65.61-53Z"/><g class="cls-19"><line class="cls-20" x1="66.33" y1="-54.83" x2="72.56" y2="27.25"/><line class="cls-20" x1="77.71" y1="-65.72" x2="83.94" y2="16.36"/><line class="cls-20" x1="89.09" y1="-76.61" x2="95.32" y2="5.47"/><line class="cls-20" x1="113.19" y1="-80.11" x2="119.42" y2="1.97"/><line class="cls-20" x1="97.88" y1="0.85" x2="179.96" y2="-5.38"/></g></g></g></svg>