<svg id="Layer_1" data-name="Layer 1" xmlns="http://www.w3.org/2000/svg" xmlns:xlink="http://www.w3.org/1999/xlink" viewBox="0 0 185.83 107.36"><defs><style>.cls-1,.cls-10,.cls-11,.cls-16,.cls-17,.cls-9{fill:none;}.cls-2{fill:#b1e3fa;}.cls-3{clip-path:url(#clip-path);}.cls-4{fill:#91d2c1;}.cls-15,.cls-5{fill:#fff;}.cls-6{fill:#f7941d;}.cls-7{fill:#433013;}.cls-8{clip-path:url(#clip-path-2);}.cls-10,.cls-17,.cls-9{stroke:#fff;}.cls-10,.cls-11,.cls-15,.cls-16,.cls-17,.cls-9{stroke-miterlimit:10;}.cls-11,.cls-9{stroke-width:0.59px;}.cls-10{stroke-width:0.39px;}.cls-11,.cls-15,.cls-16{stroke:#f7941d;}.cls-12{fill:#231f20;}.cls-13{fill:#00aeef;}.cls-14{fill:#005774;}.cls-15{stroke-width:0.29px;}.cls-16,.cls-17{stroke-width:0.31px;}</style><clipPath id="clip-path"><rect class="cls-1" x="0.69" y="-120.85" width="184.46" height="106.96"/></clipPath><clipPath id="clip-path-2"><rect class="cls-2" x="-1.33" y="0.63" width="188.49" height="106.73"/></clipPath></defs><g class="cls-3"><g id="VJZ3vz"><path class="cls-4" d="M143.83,6.53l-2.31,1L141.83,5Z"/><path class="cls-5" d="M143.83,6.53l-2.31,1L141.83,5Z"/></g><polygon class="cls-6" points="80.81 7.26 69.39 7.26 55.03 17.96 80.81 17.96 80.81 7.26"/><path class="cls-7" d="M92.09-43.23,66.81,11.19H83.32L99.66-44.89S91.06-43.23,92.09-43.23Z"/><polygon class="cls-6" points="103.8 7.26 115.22 7.26 129.58 17.96 103.8 17.96 103.8 7.26"/><path class="cls-7" d="M100-43.23l17.93,54.42H101.4l-9-56.08S101-43.23,100-43.23Z"/></g><rect class="cls-2" x="-1.33" y="0.63" width="188.49" height="106.73"/><g class="cls-8"><path class="cls-6" d="M83.46,79.75H103c15.7,0,8.35,12.86,8.35,12.86L107.45,98l1.07,9.2H76.69l2.1-6.89c-2.11,6-4.77-3.59-6-7C70.9,88.25,70.72,79.75,83.46,79.75Z"/><line class="cls-9" x1="111.91" y1="103.71" x2="188.41" y2="27.22"/><line class="cls-10" x1="111.11" y1="78.38" x2="170.54" y2="-12.01"/><line class="cls-11" x1="74.48" y1="78.38" x2="15.05" y2="-12.01"/><line class="cls-9" x1="74.24" y1="103.71" x2="-2.26" y2="27.22"/><path class="cls-5" d="M109.92,103.32V85.55a2,2,0,0,0-2-2H77.73a2,2,0,0,0-2,2v17.77H73.9l.2,2.05a2.22,2.22,0,0,0,2.21,2h33.36a2.22,2.22,0,0,0,2.21-2l.2-2.05Z"/><rect class="cls-12" x="92.59" y="91.04" width="0.77" height="7.5" transform="translate(-1.37 1.37) rotate(-0.84)"/><rect class="cls-12" x="89.23" y="94.41" width="7.5" height="0.77" transform="translate(-39.8 95.45) rotate(-45.84)"/><rect class="cls-12" x="89.23" y="94.41" width="7.5" height="0.77" transform="translate(-1.37 1.37) rotate(-0.84)"/><rect class="cls-12" x="92.59" y="91.04" width="0.77" height="7.5" transform="translate(-39.8 95.45) rotate(-45.84)"/><polygon class="cls-5" points="92.04 94.42 93.38 95.72 93.36 94.4 92.04 94.42"/><line class="cls-9" x1="81.38" y1="-1.57" x2="88.77" y2="49.76"/><line class="cls-13" x1="110.94" y1="4.26" x2="103.55" y2="55.6"/><line class="cls-13" x1="57.27" y1="12.5" x2="77.36" y2="60.32"/><g id="BR1PBp"><path class="cls-6" d="M87.3,36.75l-.31,0-1.86-.62-6-2a.78.78,0,0,1-.38-.23.61.61,0,0,1,.15-.92l2.16-1.5.15-.12L81,31.35l-2.44-.81a.64.64,0,0,1-.5-.53.63.63,0,0,1,.32-.66l2.13-1.47.14-.11-.18-.07-2.46-.81a.65.65,0,0,1-.49-.57.67.67,0,0,1,.33-.61c2.19-1.52,4.38-3,6.56-4.56a.89.89,0,0,1,.86-.12l5.74,1.91c.63.2,1.26.43,1.9.62a.66.66,0,0,1,.28,1l-.21.17L90.93,26.2l-.14.11.18.07,2.45.81a.61.61,0,0,1,.46.47.63.63,0,0,1-.29.71c-.71.48-1.42,1-2.12,1.47l-.16.12.19.06,2.44.82a.83.83,0,0,1,.32.17.65.65,0,0,1-.13,1L91,34.2Zm4.07-12.38-.1,0-6.12-2a.31.31,0,0,0-.21,0L79.7,26a.53.53,0,0,1-.11.09l.11,0,6.09,2a.22.22,0,0,0,.24-.05l3.44-2.39ZM80.11,29.71l.14.05,6,2a.23.23,0,0,0,.25,0l5.21-3.62.13-.1L91.72,28l-2.08-.69a.28.28,0,0,0-.28,0l-2.92,2a.73.73,0,0,1-.74.1c-1.12-.38-2.25-.74-3.37-1.11a.28.28,0,0,0-.2,0Zm12.31,1.95-.17-.07-2.1-.69a.27.27,0,0,0-.27,0L87,33a.8.8,0,0,1-.75.1L82.86,32a.25.25,0,0,0-.26,0c-.54.39-1.1.77-1.65,1.15l-.31.23.16.06,6,2a.28.28,0,0,0,.28,0l3.72-2.58Z"/><path class="cls-5" d="M91.37,24.37l-1.9,1.32L86,28.08a.22.22,0,0,1-.24.05l-6.09-2-.11,0A.53.53,0,0,0,79.7,26l5.24-3.64a.31.31,0,0,1,.21,0l6.12,2Z"/><path class="cls-5" d="M80.11,29.71l2-1.4a.28.28,0,0,1,.2,0c1.12.37,2.25.73,3.37,1.11a.73.73,0,0,0,.74-.1l2.92-2a.28.28,0,0,1,.28,0l2.08.69.17.06-.13.1-5.21,3.62a.23.23,0,0,1-.25,0l-6-2Z"/><path class="cls-5" d="M92.42,31.66,90.8,32.79l-3.72,2.58a.28.28,0,0,1-.28,0l-6-2-.16-.06.31-.23c.55-.38,1.11-.76,1.65-1.15a.25.25,0,0,1,.26,0l3.36,1.12A.8.8,0,0,0,87,33l2.91-2a.27.27,0,0,1,.27,0l2.1.69Z"/></g><rect class="cls-5" x="78.57" y="61.08" width="31.37" height="3.24" transform="translate(-18.3 74.81) rotate(-39.77)"/><rect class="cls-5" x="78.57" y="59.58" width="31.37" height="6.24" transform="translate(23.23 150.85) rotate(-84.77)"/><rect class="cls-5" x="91.13" y="47.02" width="6.24" height="31.37" transform="translate(23.23 150.85) rotate(-84.77)"/><rect class="cls-5" x="78.57" y="59.58" width="31.37" height="6.24" transform="translate(-18.3 74.81) rotate(-39.77)"/><rect class="cls-5" x="91.13" y="47.02" width="6.24" height="31.37" transform="translate(-18.3 74.81) rotate(-39.77)"/><rect class="cls-5" x="92.63" y="47.02" width="3.24" height="31.37" transform="translate(-18.3 74.81) rotate(-39.77)"/><rect class="cls-5" x="92.63" y="47.02" width="3.24" height="31.37" transform="translate(23.23 150.85) rotate(-84.77)"/><path class="cls-14" d="M93.86,69.3a5.62,5.62,0,0,0,.92.07v-1a4.17,4.17,0,0,1-4.18-4.14h-1A5.18,5.18,0,0,0,93.86,69.3Z"/><circle class="cls-14" cx="99.32" cy="60.86" r="0.97"/><circle class="cls-14" cx="90.94" cy="59.46" r="0.97"/><polygon class="cls-14" points="95.01 66.6 97.19 65.19 94.93 61.51 94.07 62.03 95.83 64.88 94.47 65.76 95.01 66.6"/><path class="cls-5" d="M119.11,58.4c.14-.06,3.8-1.3,3.8-1.3l2.48,13.67,7.55-.89-8.57,3.21Z"/><g id="FEfBvt"><path class="cls-6" d="M118.8,58.35a.82.82,0,0,1,.54-.4l3.11-1.07.16-.06c-.06-.34-.12-.67-.17-1a.53.53,0,0,1,.47-.65l3.47-.59c0-.07,0-.15,0-.22V53a.55.55,0,0,1,.59-.6h9.9a.72.72,0,0,1,.44.18c.85.78,1.68,1.59,2.51,2.38a.58.58,0,0,1,.2.46q0,6.69,0,13.38a.54.54,0,0,1-.62.62c-.69,0-1.37,0-2.06,0a8.31,8.31,0,0,0-3.15.55c-3.12,1.14-6.26,2.25-9.39,3.38A.56.56,0,0,1,124,73q-1.17-3.26-2.33-6.51a.53.53,0,0,1-.06-.24.28.28,0,0,1,.24-.29.3.3,0,0,1,.37.22l.57,1.6,1.74,4.82c0,.06,0,.13.09.22l6.66-2.4v-.05l-.65.11-4.93.85a.53.53,0,0,1-.63-.45c-.19-1-.36-2.07-.54-3.1L123.67,63c-.27-1.57-.53-3.13-.8-4.7-.05-.28-.1-.56-.15-.87l-3.27,1.12c.31.85.61,1.68.9,2.51.44,1.2.87,2.39,1.29,3.6a.47.47,0,0,1,0,.35.41.41,0,0,1-.28.16c-.15,0-.24-.1-.29-.24l-.66-1.83c-.51-1.42-1-2.85-1.54-4.28a1.09,1.09,0,0,0-.08-.15Zm4.27-2.57,2.55,14.86,6.92-1.19v0h-5.47c-.49,0-.68-.19-.68-.67V62.88a1.27,1.27,0,0,1,0-.2.29.29,0,0,1,.31-.25.27.27,0,0,1,.3.28,1.69,1.69,0,0,1,0,.23v5.85h12.37V55.68h-.68c-.5,0-1,0-1.49,0a.69.69,0,0,1-.72-.78c0-.54,0-1.07,0-1.61,0-.08,0-.15,0-.22H127v8.26a.31.31,0,0,1-.62,0,1.27,1.27,0,0,1,0-.2V55.21Zm14.05-2.54v1.63c0,.15.07.17.19.17h1.47l.21,0Z"/><path class="cls-5" d="M123.07,55.78l3.32-.57v5.91a1.27,1.27,0,0,0,0,.2.31.31,0,0,0,.62,0V53.05h9.46c0,.07,0,.14,0,.22,0,.54,0,1.07,0,1.61a.69.69,0,0,0,.72.78c.49,0,1,0,1.49,0h.68V68.79H127V62.94a1.69,1.69,0,0,0,0-.23.27.27,0,0,0-.3-.28.29.29,0,0,0-.31.25,1.27,1.27,0,0,0,0,.2v5.87c0,.48.19.67.68.67h5.47v0l-6.92,1.19Zm10.22,1.77h4.25a1,1,0,0,0,.24,0,.28.28,0,0,0,.25-.29.3.3,0,0,0-.25-.31.68.68,0,0,0-.2,0H129c-.3,0-.47.12-.47.32s.17.32.47.32h4.31Zm0,8.2H129c-.33,0-.49.11-.49.32s.17.32.49.32h8.62c.26,0,.4-.12.41-.31s-.14-.33-.41-.33h-4.35Zm0-3.79h4.49a.3.3,0,0,0,.27-.3.31.31,0,0,0-.27-.32.86.86,0,0,0-.16,0H129c-.06,0-.13,0-.16,0s-.23.14-.27.24.1.37.37.37Zm0-2.83h-4.48a.28.28,0,0,0-.27.28.29.29,0,0,0,.22.32.82.82,0,0,0,.22,0h8.62a.55.55,0,0,0,.18,0,.3.3,0,0,0,.27-.32.28.28,0,0,0-.29-.29h-4.47Zm0,5h4.51a.29.29,0,0,0,.27-.27.29.29,0,0,0-.21-.32.63.63,0,0,0-.24,0H129c-.29,0-.45.11-.45.32s.15.31.45.31h4.29Z"/><path class="cls-5" d="M137.12,53.24,139,55l-.21,0h-1.47c-.12,0-.19,0-.19-.17Z"/><path class="cls-6" d="M133.29,57.55H129c-.3,0-.47-.11-.47-.32s.17-.32.47-.32h8.6a.68.68,0,0,1,.2,0,.3.3,0,0,1,.25.31.28.28,0,0,1-.25.29,1,1,0,0,1-.24,0Z"/><path class="cls-6" d="M133.27,65.75h4.35c.27,0,.42.12.41.33s-.15.31-.41.31H129c-.32,0-.48-.11-.49-.32s.16-.32.49-.32Z"/><path class="cls-6" d="M133.27,62H128.9c-.27,0-.45-.17-.37-.37s.17-.17.27-.24.1,0,.16,0h8.64a.86.86,0,0,1,.16,0,.31.31,0,0,1,.27.32.3.3,0,0,1-.27.3h-4.49Z"/><path class="cls-6" d="M133.27,59.13h4.47a.28.28,0,0,1,.29.29.3.3,0,0,1-.27.32.55.55,0,0,1-.18,0H129a.82.82,0,0,1-.22,0,.29.29,0,0,1-.22-.32.28.28,0,0,1,.27-.28h4.48Z"/><path class="cls-6" d="M133.25,64.17H129c-.3,0-.45-.11-.45-.31s.16-.32.45-.32h8.62a.63.63,0,0,1,.24,0,.29.29,0,0,1,.21.32.29.29,0,0,1-.27.27h-4.51Z"/></g><line class="cls-13" x1="3.74" y1="6.67" x2="37.44" y2="46.1"/><line class="cls-13" x1="177.92" y1="12.62" x2="143.7" y2="51.6"/><circle class="cls-5" cx="56.43" cy="49.15" r="4.33"/><circle class="cls-5" cx="49.51" cy="61.1" r="4.33"/><circle class="cls-5" cx="63.21" cy="61.08" r="4.33"/><g id="YcU1na"><path class="cls-6" d="M45,60.51c.06-.26.1-.53.18-.78A4.7,4.7,0,0,1,53.32,58l.12.14c.71-.45,1.38-.94,2.1-1.34a1,1,0,0,0,.58-1.08,16.26,16.26,0,0,1,0-1.71c0-.15,0-.22-.21-.23A4.73,4.73,0,0,1,51.82,50a4.67,4.67,0,0,1,.81-3.69.52.52,0,0,1,.25-.2.54.54,0,0,1,.35.13c.13.12.09.29,0,.43a3.81,3.81,0,0,0-.7,1.53,4,4,0,0,0,.81,3.44A5.23,5.23,0,0,1,55,49.85,1.92,1.92,0,0,1,57.7,47.2a1.89,1.89,0,0,1,.24,2.61c.3.28.62.54.9.84s.49.64.74,1l.11-.12a4,4,0,0,0-2.6-6.35,4,4,0,0,0-2.83.59l0,0c-.24.15-.44.13-.55-.06a.32.32,0,0,1,.17-.5,7.49,7.49,0,0,1,1.42-.63,4.7,4.7,0,1,1,2,9.17l-.5.08v1.45c0,.33,0,.67,0,1a.37.37,0,0,0,.09.21l2.5,1.61c.28-.25.52-.49.79-.71a4.68,4.68,0,0,1,4.37-1l.14.05a.33.33,0,0,1,.22.4.32.32,0,0,1-.39.25c-.14,0-.28-.07-.41-.1a4,4,0,0,0-4.88,3.55,3.9,3.9,0,0,0,.79,2.8l.08.1c.25-.33.47-.68.74-1s.59-.56.88-.83A2,2,0,0,1,62.05,59a1.92,1.92,0,0,1,2.67,2.72,5.23,5.23,0,0,1,1.64,1.82,3.82,3.82,0,0,0,.86-2,4,4,0,0,0-1.59-3.78c-.25-.19-.28-.44-.07-.59a.34.34,0,0,1,.45,0,4.61,4.61,0,0,1,1.87,3,4.71,4.71,0,0,1-9.27,1.65,4.81,4.81,0,0,1,.41-3l.07-.13L59,58.62l-2.34-1.5a.21.21,0,0,0-.28,0l-2.44,1.58s0,0,0,0c.15.51.34,1,.44,1.47a4.69,4.69,0,0,1-3.59,5.42,3.32,3.32,0,0,1-.55.09.35.35,0,0,1-.42-.3.34.34,0,0,1,.34-.37,4.11,4.11,0,0,0,2.07-.84,1.31,1.31,0,0,0,.15-.12,4.3,4.3,0,0,0-1.47-1.74l-.31-.2c-.32-.19-.35-.41-.06-.67a1.23,1.23,0,1,0-1.66-.09l.11.1c.29.25.25.46-.07.68a8.26,8.26,0,0,0-.88.68,3.59,3.59,0,0,0-.88,1.26,3.79,3.79,0,0,0,1.56.82c.36.1.49.24.42.48s-.26.27-.61.18A4.72,4.72,0,0,1,45,61.66a.56.56,0,0,0,0-.12Zm7.83,3a4,4,0,1,0-6.23,0,5.1,5.1,0,0,1,1.63-1.82,1.92,1.92,0,0,1,2.57-2.8,1.94,1.94,0,0,1,.4,2.79A5.15,5.15,0,0,1,52.81,63.53Zm13,.48c-.15-.25-.29-.5-.45-.73a4.32,4.32,0,0,0-1.31-1.17c-.36-.21-.38-.42-.08-.7l.11-.1a1.25,1.25,0,0,0,.15-1.48,1.22,1.22,0,0,0-1.4-.53,1.15,1.15,0,0,0-.84.9,1.19,1.19,0,0,0,.38,1.2.93.93,0,0,1,.22.27c.06.22-.08.34-.26.44A4.26,4.26,0,0,0,60.64,64,4,4,0,0,0,65.86,64Zm-6.8-11.85c-.12-.2-.24-.42-.38-.62a4.34,4.34,0,0,0-1.44-1.32.34.34,0,0,1-.06-.61l.15-.14a1.23,1.23,0,1,0-1.67.11c.2.17.26.37.13.52a1,1,0,0,1-.25.19,4.26,4.26,0,0,0-1.7,1.89A4,4,0,0,0,59.06,52.16Z"/><path class="cls-5" d="M52.81,63.53a5.15,5.15,0,0,0-1.63-1.81,1.94,1.94,0,0,0-.4-2.79,1.92,1.92,0,0,0-2.57,2.8,5.1,5.1,0,0,0-1.63,1.82,4,4,0,1,1,6.23,0Z"/><path class="cls-5" d="M65.86,64a4,4,0,0,1-5.22,0,4.26,4.26,0,0,1,1.74-1.92c.18-.1.32-.22.26-.44a.93.93,0,0,0-.22-.27A1.19,1.19,0,0,1,62,60.2a1.15,1.15,0,0,1,.84-.9,1.22,1.22,0,0,1,1.4.53,1.25,1.25,0,0,1-.15,1.48l-.11.1c-.3.28-.28.49.08.7a4.32,4.32,0,0,1,1.31,1.17C65.57,63.51,65.71,63.76,65.86,64Z"/><path class="cls-5" d="M59.06,52.16a4,4,0,0,1-5.22,0,4.26,4.26,0,0,1,1.7-1.89,1,1,0,0,0,.25-.19c.13-.15.07-.35-.13-.52a1.23,1.23,0,1,1,1.67-.11l-.15.14a.34.34,0,0,0,.06.61,4.34,4.34,0,0,1,1.44,1.32C58.82,51.74,58.94,52,59.06,52.16Z"/></g><line class="cls-15" x1="135.78" y1="1.96" x2="128.3" y2="19.83"/><line class="cls-15" x1="123.15" y1="31.99" x2="115.69" y2="49.77"/><line class="cls-16" x1="125.73" y1="21.1" x2="125.73" y2="30.57"/><line class="cls-16" x1="121" y1="25.83" x2="130.47" y2="25.83"/><line class="cls-16" x1="122.38" y1="22.48" x2="129.08" y2="29.18"/><line class="cls-16" x1="122.38" y1="29.18" x2="129.08" y2="22.48"/><line class="cls-17" x1="42.42" y1="46.68" x2="42.42" y2="56.15"/><line class="cls-17" x1="37.68" y1="51.41" x2="47.16" y2="51.41"/><line class="cls-17" x1="39.07" y1="48.06" x2="45.77" y2="54.76"/><line class="cls-17" x1="39.07" y1="54.76" x2="45.77" y2="48.06"/></g></svg>