<svg xmlns="http://www.w3.org/2000/svg" width="15.879" height="14.112" viewBox="0 0 15.879 14.112">
  <defs>
    <style>
      .cls-1 {
        fill: #28C2F0;
      }
    </style>
  </defs>
  <path id="Icon_awesome-edit" data-name="Icon awesome-edit" class="cls-1" d="M11.1,2.3l2.487,2.487a.27.27,0,0,1,0,.38L7.564,11.186l-2.558.284a.536.536,0,0,1-.593-.593L4.7,8.319,10.718,2.3A.27.27,0,0,1,11.1,2.3Zm4.466-.631L14.219.321a1.078,1.078,0,0,0-1.522,0l-.976.976a.27.27,0,0,0,0,.38l2.487,2.487a.27.27,0,0,0,.38,0l.976-.976a1.078,1.078,0,0,0,0-1.522ZM10.586,9.548v2.806H1.764V3.533H8.1a.339.339,0,0,0,.234-.1l1.1-1.1A.331.331,0,0,0,9.2,1.769H1.323A1.324,1.324,0,0,0,0,3.092v9.7a1.324,1.324,0,0,0,1.323,1.323h9.7A1.324,1.324,0,0,0,12.35,12.8V8.445a.331.331,0,0,0-.565-.234l-1.1,1.1A.339.339,0,0,0,10.586,9.548Z" transform="translate(0 -0.007)"/>
</svg>
