<svg xmlns="http://www.w3.org/2000/svg" width="16.667" height="12.5" viewBox="0 0 16.667 12.5">
  <defs>
    <style>
      .cls-1 {
        fill: #28C2F0;
      }
    </style>
  </defs>
  <path id="Icon_awesome-image" data-name="Icon awesome-image" class="cls-1" d="M15.1,17H1.563A1.562,1.562,0,0,1,0,15.438V6.063A1.562,1.562,0,0,1,1.563,4.5H15.1a1.562,1.562,0,0,1,1.562,1.563v9.375A1.562,1.562,0,0,1,15.1,17ZM3.646,6.323A1.823,1.823,0,1,0,5.469,8.146,1.823,1.823,0,0,0,3.646,6.323ZM2.083,14.917h12.5V11.271L11.735,8.422a.391.391,0,0,0-.552,0L6.771,12.833,4.964,11.026a.391.391,0,0,0-.552,0L2.083,13.354Z" transform="translate(0 -4.5)"/>
</svg>
