<?xml version="1.0" encoding="UTF-8" standalone="no"?>
<!-- Created with Inkscape (http://www.inkscape.org/) -->

<svg
   version="1.1"
   id="svg824"
   xml:space="preserve"
   width="240"
   height="150"
   viewBox="0 0 240 150"
   sodipodi:docname="impactflow-logo.svg"
   inkscape:version="1.2-dev (9ee32be, 2021-06-19)"
   xmlns:inkscape="http://www.inkscape.org/namespaces/inkscape"
   xmlns:sodipodi="http://sodipodi.sourceforge.net/DTD/sodipodi-0.dtd"
   xmlns="http://www.w3.org/2000/svg"
   xmlns:svg="http://www.w3.org/2000/svg"><defs
     id="defs828"><clipPath
       clipPathUnits="userSpaceOnUse"
       id="clipPath838"><path
         d="M 0,108 H 243 V 0 H 0 Z"
         id="path836" /></clipPath></defs><sodipodi:namedview
     id="namedview826"
     pagecolor="#ffffff"
     bordercolor="#666666"
     borderopacity="1.0"
     inkscape:pageshadow="2"
     inkscape:pageopacity="0.0"
     inkscape:pagecheckerboard="0"
     showgrid="false"
     inkscape:zoom="1.1009789"
     inkscape:cx="162.12845"
     inkscape:cy="72.208468"
     inkscape:window-width="1920"
     inkscape:window-height="1080"
     inkscape:window-x="478"
     inkscape:window-y="25"
     inkscape:window-maximized="0"
     inkscape:current-layer="g832" /><g
     id="g830"
     inkscape:groupmode="layer"
     inkscape:label="impactcommons-logo"
     transform="matrix(1.3333333,0,0,-1.3333333,0,144)"><g
       id="g832"><g
         aria-label="FLOW"
         transform="scale(1,-1)"
         id="text2668"
         style="font-size:61.9042px;line-height:1.25;stroke-width:1.5476"><path
           d="M 14.115817,-30.011505 V -49.325616 H 40.115582 V -50.5637 H 12.877733 v 44.1995995 h 1.238084 V -28.773421 h 23.523597 v -1.238084 z"
           style="font-weight:100;font-family:'Helvetica Neue';-inkscape-font-specification:'Helvetica Neue Thin'"
           id="path915" /><path
           d="M 69.705727,-7.6021845 H 43.891675 V -50.5637 h -1.238084 v 44.1995995 h 27.052136 z"
           style="font-weight:100;font-family:'Helvetica Neue';-inkscape-font-specification:'Helvetica Neue Thin'"
           id="path917" /><path
           d="m 71.067557,-28.4639 q 0,-4.70472 1.299988,-8.914205 1.361892,-4.209486 3.899965,-7.3666 2.599976,-3.157115 6.376132,-5.014241 3.838061,-1.857126 8.790397,-1.857126 4.952336,0 8.728491,1.857126 3.83806,1.857126 6.37613,5.014241 2.59998,3.157114 3.89997,7.3666 1.36189,4.209485 1.36189,8.914205 0,4.704719 -1.36189,8.914205 -1.29999,4.209485 -3.89997,7.3666 -2.53807,3.1571139 -6.37613,5.0142399 -3.776155,1.7952219 -8.728491,1.7952219 -4.952336,0 -8.790397,-1.7952219 -3.776156,-1.857126 -6.376132,-5.0142399 -2.538073,-3.157115 -3.899965,-7.3666 -1.299988,-4.209486 -1.299988,-8.914205 z m 1.238084,0 q 0.0619,4.766623 1.361892,8.790396 1.361893,4.023773 3.776156,6.933271 2.476169,2.9094973 6.004708,4.5809107 3.528539,1.6095092 7.985642,1.6095092 4.457102,0 7.985642,-1.6095092 3.528539,-1.6714134 5.942799,-4.5809107 2.47617,-2.909498 3.77616,-6.933271 1.36189,-4.023773 1.4238,-8.790396 -0.0619,-4.766624 -1.4238,-8.790397 -1.29999,-4.023773 -3.77616,-6.933271 -2.41426,-2.909497 -5.942799,-4.519006 -3.52854,-1.671414 -7.985642,-1.671414 -4.457103,0 -7.985642,1.671414 -3.528539,1.609509 -6.004708,4.519006 -2.414263,2.909498 -3.776156,6.933271 -1.299988,4.023773 -1.361892,8.790397 z"
           style="font-weight:100;font-family:'Helvetica Neue';-inkscape-font-specification:'Helvetica Neue Thin'"
           id="path919" /><path
           d="m 166.95709,-50.5637 -12.31894,42.6519945 h -0.1238 L 141.57637,-50.5637 h -1.79522 l -12.75227,42.6519945 h -0.12381 L 114.40042,-50.5637 h -1.23808 l 12.99988,44.1995995 h 1.67141 L 140.5859,-49.016095 h 0.12381 l 12.99988,42.6519945 H 155.381 L 168.19517,-50.5637 Z"
           style="font-weight:100;font-family:'Helvetica Neue';-inkscape-font-specification:'Helvetica Neue Thin'"
           id="path921" /></g><g
         aria-label="IMPACT"
         transform="scale(1,-1)"
         id="text2668-9"
         style="font-size:43.5702px;line-height:1.25;stroke-width:1.08925"><path
           d="m 12.891262,-96.569207 v 31.109124 h 4.139169 v -31.109124 z"
           style="font-family:'Helvetica Neue';-inkscape-font-specification:'Helvetica Neue'"
           id="path924" /><path
           d="m 24.088754,-96.569207 v 31.109124 h 3.921318 v -25.8807 h 0.08714 l 9.716155,25.8807 h 3.529186 l 9.716155,-25.8807 h 0.08714 v 25.8807 h 3.921319 v -31.109124 h -5.664127 l -9.846865,26.142121 -9.803296,-26.142121 z"
           style="font-family:'Helvetica Neue';-inkscape-font-specification:'Helvetica Neue'"
           id="path926" /><path
           d="m 66.090357,-81.668198 v -11.415393 h 8.104058 q 3.529186,0 5.141284,1.481387 1.655667,1.437817 1.655667,4.226309 0,2.788493 -1.655667,4.26988 -1.612098,1.481387 -5.141284,1.437817 z m -4.139169,-14.901009 v 31.109124 h 4.139169 v -12.722499 h 9.498304 q 4.705582,0.04357 7.101943,-2.396361 2.439932,-2.439931 2.439932,-6.796952 0,-4.35702 -2.439932,-6.753381 -2.396361,-2.439931 -7.101943,-2.439931 z"
           style="font-family:'Helvetica Neue';-inkscape-font-specification:'Helvetica Neue'"
           id="path928" /><path
           d="m 92.319509,-78.313293 5.271994,-14.508877 h 0.08714 l 5.184856,14.508877 z m 3.093484,-18.255914 -12.112516,31.109124 h 4.22631 l 3.485616,-9.367593 H 104.1706 l 3.39848,9.367593 h 4.57487 L 99.987864,-96.569207 Z"
           style="font-family:'Helvetica Neue';-inkscape-font-specification:'Helvetica Neue'"
           id="path930" /><path
           d="m 137.06605,-87.201614 h 4.13917 q -0.34856,-2.483501 -1.48139,-4.35702 -1.13282,-1.917089 -2.83206,-3.180625 -1.69924,-1.263536 -3.87775,-1.917089 -2.17851,-0.653553 -4.61844,-0.653553 -3.57275,0 -6.36125,1.307106 -2.74492,1.263536 -4.61844,3.485617 -1.82995,2.22208 -2.78849,5.228424 -0.95855,2.962774 -0.95855,6.361249 0,3.398476 0.87141,6.36125 0.91497,2.962774 2.70135,5.141284 1.78638,2.17851 4.48773,3.442046 2.70135,1.219965 6.31768,1.219965 5.96912,0 9.41116,-3.267765 3.44205,-3.267765 4.05203,-9.149742 h -4.13917 q -0.13071,1.917089 -0.78426,3.572756 -0.65355,1.655668 -1.82995,2.875634 -1.13282,1.176395 -2.74492,1.873518 -1.56853,0.653553 -3.61633,0.653553 -2.78849,0 -4.79272,-1.045685 -2.00423,-1.045684 -3.31134,-2.788492 -1.26353,-1.786379 -1.87351,-4.13917 -0.60999,-2.396361 -0.60999,-5.054143 0,-2.439931 0.60999,-4.705582 0.60998,-2.26565 1.87351,-4.008458 1.30711,-1.786379 3.26777,-2.832064 2.00423,-1.045684 4.79272,-1.045684 3.26777,0 5.62056,1.655667 2.39636,1.655668 3.09348,4.967003 z"
           style="font-family:'Helvetica Neue';-inkscape-font-specification:'Helvetica Neue'"
           id="path932" /><path
           d="m 153.70979,-93.083591 v 27.623508 h 4.13917 v -27.623508 h 10.3697 v -3.485616 h -24.87858 v 3.485616 z"
           style="font-family:'Helvetica Neue';-inkscape-font-specification:'Helvetica Neue'"
           id="path934" /></g></g></g></svg>
