<?xml version="1.0" encoding="utf-8"?>
<!-- Generator: Adobe Illustrator 25.4.1, SVG Export Plug-In . SVG Version: 6.00 Build 0)  -->
<svg version="1.1" id="Layer_1" xmlns="http://www.w3.org/2000/svg" xmlns:xlink="http://www.w3.org/1999/xlink" x="0px" y="0px"
	 viewBox="0 0 100.8 62.9" style="enable-background:new 0 0 100.8 62.9;" xml:space="preserve">
<style type="text/css">
	.st0{fill:#231F20;}
	.st1{fill:#FFFFFF;}
</style>
<g>
	<g>
		<g>
			<polygon class="st0" points="81,52.6 11.1,52.6 11.1,19.8 63.6,19.8 63.6,17.5 8.9,17.5 8.9,54.8 83.2,54.8 83.2,35.6 81,35.6 
							"/>
		</g>
		<g>
			<g>
				<path class="st0" d="M19.1,25.6h2.2v9.7h-2.2V25.6z"/>
				<path class="st0" d="M32,29.2l-2.6,5.3h-1.3l-2.6-5.3v6.1h-2.2v-9.7h2.9l2.5,5.3l2.5-5.3h2.9v9.7H32V29.2z"/>
				<path class="st0" d="M42.9,26.5c0.7,0.6,1,1.5,1,2.7s-0.3,2.1-1,2.6s-1.8,0.8-3.2,0.8h-1.3v2.7h-2.2v-9.7h3.4
					C41.1,25.6,42.2,25.9,42.9,26.5z M41.3,30.3c0.3-0.3,0.4-0.7,0.4-1.3c0-0.6-0.2-1-0.5-1.2s-0.9-0.4-1.6-0.4h-1.2v3.3h1.4
					C40.6,30.7,41.1,30.6,41.3,30.3z"/>
				<path class="st0" d="M51.6,35.3l-0.9-2.1h-4l-0.9,2.1h-2.3l4.2-9.7h2.1l4.2,9.7H51.6z M48.7,28.5l-1.2,2.8h2.4L48.7,28.5z"/>
				<path class="st0" d="M59.2,33.4c1.1,0,1.9-0.4,2.6-1.3l1.4,1.4c-1.1,1.2-2.4,1.9-3.9,1.9c-1.5,0-2.7-0.5-3.7-1.4
					c-1-0.9-1.4-2.1-1.4-3.6s0.5-2.6,1.5-3.6c1-1,2.2-1.4,3.6-1.4c1.6,0,2.9,0.6,4,1.8l-1.3,1.5c-0.7-0.9-1.5-1.3-2.5-1.3
					c-0.8,0-1.5,0.3-2.1,0.8c-0.6,0.5-0.9,1.3-0.9,2.2c0,0.9,0.3,1.6,0.8,2.2C57.8,33.1,58.4,33.4,59.2,33.4z"/>
				<path class="st0" d="M68.7,27.5v7.9h-2.2v-7.9h-2.7v-1.9h7.6v1.9H68.7z"/>
			</g>
			<g>
				<path class="st0" d="M25.6,37.2v1.9h-4.5v2.1h4.3v1.9h-4.3V47H19v-9.7H25.6z"/>
				<path class="st0" d="M27.1,47v-9.7h2.2V45h4.1V47H27.1z"/>
				<path class="st0" d="M42.5,45.6c-1,1-2.2,1.4-3.6,1.4s-2.6-0.5-3.6-1.4c-1-1-1.5-2.2-1.5-3.6s0.5-2.6,1.5-3.6
					c1-1,2.2-1.4,3.6-1.4s2.6,0.5,3.6,1.4c1,1,1.5,2.2,1.5,3.6S43.5,44.6,42.5,45.6z M41.8,42c0-0.9-0.3-1.6-0.8-2.2
					c-0.6-0.6-1.2-0.9-2-0.9s-1.5,0.3-2,0.9c-0.6,0.6-0.8,1.4-0.8,2.2s0.3,1.6,0.8,2.2c0.6,0.6,1.2,0.9,2,0.9s1.5-0.3,2-0.9
					C41.5,43.6,41.8,42.9,41.8,42z"/>
				<path class="st0" d="M48.4,42.8l1.7-5.6h2.2l1.7,5.6l1.9-5.6h2.3L55,47h-1.6l-2.1-6.8L49.1,47h-1.6l-3.4-9.7h2.3L48.4,42.8z"/>
			</g>
		</g>
	</g>
	<g>
		<g>
			<rect x="81" y="7.8" class="st0" width="2.2" height="21.6"/>
			
				<rect x="71.3" y="17.5" transform="matrix(0.7071 -0.7071 0.7071 0.7071 10.8718 63.553)" class="st0" width="21.6" height="2.2"/>
			<rect x="71.3" y="17.5" class="st0" width="21.6" height="2.2"/>
			<rect x="81" y="7.8" transform="matrix(0.7071 -0.7071 0.7071 0.7071 10.8718 63.553)" class="st0" width="2.2" height="21.6"/>
		</g>
		<polygon class="st1" points="79.5,17.5 83.3,21.4 83.3,17.5 		"/>
	</g>
</g>
</svg>
