<svg xmlns="http://www.w3.org/2000/svg" width="24.1" height="23.987" viewBox="0 0 24.1 23.987">
  <defs>
    <style>
      .cls-1 {
        fill: #fff;
      }

      .cls-2 {
        fill: #a3a3a3;
      }
    </style>
  </defs>
  <g id="repassword" transform="translate(-5.6 -3.813)">
    <path id="Path_728" data-name="Path 728" class="cls-1" d="M18.5,22.3a3.021,3.021,0,0,1-.1-3.4,6.778,6.778,0,0,1,3-2.8c.1-.1.2-.1.2-.2V13a2.138,2.138,0,0,0-1.9-2,4.1,4.1,0,0,1-1.1-.1V9.3A5.7,5.7,0,0,0,18.5,8a4.877,4.877,0,0,0-5.9-3.9A5,5,0,0,0,8.7,8.3c-.1.8,0,1.6-.1,2.4V11H7.9a2.263,2.263,0,0,0-2.3,2.3v8.8A2.192,2.192,0,0,0,7.9,24h9.6a.1.1,0,0,0,.1-.1A7.579,7.579,0,0,1,18.5,22.3Z"/>
    <path id="Path_729" data-name="Path 729" class="cls-2" d="M29.7,21a1,1,0,0,1-1,.6H26.5c-.4,0-.7-.1-.8-.5a.9.9,0,0,1,.2-.9c.1-.1.3-.2.4-.4a2.976,2.976,0,0,0-1.5-.5,3.114,3.114,0,0,0-3,1.7.876.876,0,0,1-1,.5A.989.989,0,0,1,20,20a5.334,5.334,0,0,1,7.6-1.8.349.349,0,0,0,.2.1l.4-.4c.6-.6,1-.5,1.4.2C29.7,19.1,29.7,20.1,29.7,21Z"/>
    <path id="Path_730" data-name="Path 730" class="cls-2" d="M24.2,27.8c-.3-.1-.6-.1-.9-.2a4.011,4.011,0,0,1-1.7-.9c-.2.2-.3.4-.5.5a.9.9,0,0,1-.9.2.752.752,0,0,1-.5-.7V24.3a.736.736,0,0,1,.8-.8h2.4a.749.749,0,0,1,.8.5,1.02,1.02,0,0,1-.2.9,2.181,2.181,0,0,1-.5.4,2.976,2.976,0,0,0,1.5.5,3.114,3.114,0,0,0,3-1.7.76.76,0,0,1,.9-.5,1.05,1.05,0,0,1,.9.5.9.9,0,0,1,0,1,5.471,5.471,0,0,1-3.9,2.7H24.2Z"/>
    <path id="Path_731" data-name="Path 731" class="cls-2" d="M18.5,22.3a3.224,3.224,0,0,0-.8,1.4l-.1.1H8a2.276,2.276,0,0,1-2.3-1.9V13.1A2.263,2.263,0,0,1,8,10.8h.7v-.3a19.269,19.269,0,0,1,.1-2.4,4.969,4.969,0,0,1,9.8-.3,5.7,5.7,0,0,1,.1,1.3v1.6a4.1,4.1,0,0,1,1.1.1,2.232,2.232,0,0,1,1.9,2v2.9c0,.2-.1.2-.2.2a6.778,6.778,0,0,0-3,2.8A3.338,3.338,0,0,0,18.5,22.3ZM16.7,10.8a19.219,19.219,0,0,0,0-2.4,2.909,2.909,0,0,0-3.2-2.5,3.107,3.107,0,0,0-2.8,2.9v2Z"/>
    <path id="Path_732" data-name="Path 732" class="cls-1" d="M16.7,10.8H10.8v-2a2.935,2.935,0,0,1,2.7-2.9,2.987,2.987,0,0,1,3.2,2.5A19.219,19.219,0,0,1,16.7,10.8Z"/>
  </g>
</svg>
