<svg xmlns="http://www.w3.org/2000/svg" width="20.439" height="16.352" viewBox="0 0 20.439 16.352">
  <defs>
    <style>
      .cls-1 {
        fill: #a3a3a3;
      }
    </style>
  </defs>
  <path id="Icon_awesome-user-edit" data-name="Icon awesome-user-edit" class="cls-1" d="M7.154,8.176A4.088,4.088,0,1,0,3.066,4.088,4.088,4.088,0,0,0,7.154,8.176ZM10.016,9.2H9.482a5.56,5.56,0,0,1-4.656,0H4.292A4.294,4.294,0,0,0,0,13.49v1.329a1.533,1.533,0,0,0,1.533,1.533h8.78a1.534,1.534,0,0,1-.083-.68l.217-1.945.038-.355.252-.252,2.469-2.469A4.249,4.249,0,0,0,10.016,9.2Zm1.447,4.641-.217,1.948a.508.508,0,0,0,.562.562l1.945-.217,4.4-4.4-2.29-2.29-4.4,4.4Zm8.754-5.251-1.21-1.21a.765.765,0,0,0-1.079,0L16.719,8.585l-.131.131,2.293,2.29,1.335-1.335a.769.769,0,0,0,0-1.083Z"/>
</svg>
